<svg width="29" height="34" viewBox="0 0 29 34" fill="none" xmlns="http://www.w3.org/2000/svg">
<path d="M28.173 8.30997C29.7635 5.76514 28.991 2.41749 26.4462 0.826975C23.9013 -0.763539 20.5537 0.0089959 18.9632 2.55382L23.1591 5.17438L22.2805 6.56797C20.0689 5.0229 17.3727 4.11404 14.4794 4.11404C11.5862 4.11404 8.90506 5.0229 6.70863 6.55283L5.84521 5.17438L10.0411 2.55382C8.43547 0.0089959 5.08782 -0.763539 2.543 0.826975C-0.00182507 2.41749 -0.759213 5.76514 0.831301 8.30997L5.02723 5.6894L5.93609 7.12844C2.84595 9.62782 0.861597 13.4451 0.861597 17.7319C0.861597 22.7912 3.61849 27.2144 7.72353 29.5623L6.20876 33.8945H8.90505L9.98055 30.5923C11.3893 31.0922 12.9041 31.3649 14.4794 31.3649C16.0851 31.3649 17.6302 31.077 19.0541 30.5772L20.1295 33.9097H22.7198L21.2959 29.5471H21.2808C25.3404 27.1841 28.0821 22.7912 28.0821 17.7622C28.0821 13.4905 26.1129 9.68841 23.0379 7.18903L23.9619 5.7197L28.173 8.30997Z" fill="#FCC16A"/>
<path d="M14.4946 30.0772C21.3128 30.0772 26.84 24.55 26.84 17.7318C26.84 10.9136 21.3128 5.38639 14.4946 5.38639C7.67639 5.38639 2.14916 10.9136 2.14916 17.7318C2.14916 24.55 7.67639 30.0772 14.4946 30.0772Z" fill="#E6E7E8"/>
<path d="M15.0551 6.4317H13.9493V9.32492H15.0551V6.4317Z" fill="#808285"/>
<path d="M15.0551 25.9117H13.9493V28.8049H15.0551V25.9117Z" fill="#808285"/>
<path d="M25.6885 18.1769V17.0711H22.7953V18.1769H25.6885Z" fill="#808285"/>
<path d="M6.20759 18.1777V17.0719H3.31437V18.1777H6.20759Z" fill="#808285"/>
<path d="M17.9634 12.3241C17.8422 12.2333 17.6605 12.2636 17.5696 12.3847L14.7975 16.2323C14.7067 16.202 14.6006 16.1717 14.4794 16.1717C13.9341 16.1717 13.4797 16.6261 13.4797 17.1714C13.4797 17.5047 13.6463 17.8076 13.9038 17.9894C13.8887 18.0348 13.8735 18.0803 13.8735 18.1257L13.51 21.6249C13.4797 21.9278 13.7069 22.2005 14.0099 22.2308C14.3128 22.2611 14.5855 22.0339 14.6158 21.7309L14.9793 18.2318C14.9793 18.1712 14.9793 18.0954 14.9642 18.0348C15.2823 17.8682 15.4943 17.535 15.4943 17.1563C15.4943 16.9139 15.4035 16.7018 15.2671 16.5201L18.024 12.6877C18.1149 12.5817 18.0998 12.415 17.9634 12.3241Z" fill="#808285"/>
</svg>
