<svg width="181" height="109" viewBox="0 0 181 109" fill="none" xmlns="http://www.w3.org/2000/svg">
<path d="M179.422 50.8925C178.62 48.3807 177.508 45.9992 176.118 43.8131C175.404 42.6661 174.605 41.584 173.73 40.5775C173.032 39.6894 172.211 38.926 171.296 38.315C171.627 34.1668 171.035 29.9928 169.57 26.1473C168.105 22.3018 165.81 18.8981 162.88 16.2253C158.971 12.8862 154.354 10.6726 149.454 9.78828C144.554 8.90399 139.528 9.37747 134.84 11.1651C129.432 13.1187 124.58 16.5631 120.754 21.1639C118.271 17.7038 115.398 14.5979 112.203 11.9193C106.855 7.49833 100.799 4.19865 94.3439 2.18815C81.0869 -1.91036 66.8854 -0.208277 54.7627 6.93207C52.2829 8.36208 49.9027 9.98829 47.6412 11.7976C38.957 7.15102 27.9287 8.46473 19.3784 12.8681C10.1138 17.7336 2.01002 27.0269 0.358013 38.3636C-0.208324 41.6402 -0.101675 45.0127 0.670315 48.239C1.44231 51.4653 2.86047 54.4651 4.8229 57.0231C5.0382 57.2719 5.31894 57.4419 5.62655 57.5097C4.49207 59.441 3.63391 61.5492 3.08156 63.7619C2.03266 67.3277 1.99118 71.1547 2.96247 74.7465C3.93377 78.3383 5.87302 81.5292 8.52873 83.9054C9.92365 85.0588 11.4961 85.932 13.1722 86.4841C14.0491 86.9 14.9952 87.1146 15.9516 87.1146C16.908 87.1146 17.8541 86.9 18.731 86.4841C21.6694 91.8663 26.1363 96.0593 31.4559 98.4291C34.5842 99.802 37.9344 100.473 41.3062 100.402C44.678 100.331 48.0019 99.5192 51.0791 98.0155C52.7218 101.329 55.4345 103.86 58.6918 105.119C62.5982 106.743 66.708 107.71 70.8809 107.99C79.9288 108.859 89.0443 107.709 97.6703 104.608C102.651 102.777 107.423 100.328 111.891 97.31C111.982 97.2564 112.06 97.1799 112.118 97.0867C112.176 96.9936 112.213 96.8867 112.226 96.7748C116.669 99.9592 121.806 101.806 127.116 102.127C135.121 102.527 142.956 99.5265 148.972 93.7581C150.469 92.3327 151.844 90.761 153.08 89.0629C154.903 89.5009 156.792 89.5009 158.616 89.0629C160.797 88.6613 162.926 87.9752 164.956 87.0193C169.112 85.0294 172.759 81.9647 175.583 78.091C178.265 74.2726 180.023 69.78 180.694 65.0268C181.365 60.2737 180.928 55.413 179.422 50.8925Z" fill="#AAAAAA"/>
<path d="M178.462 63.0564C178.132 67.5395 176.76 71.8571 174.475 75.6025C172.19 79.3479 169.068 82.3978 165.403 84.4649C163.346 85.6751 161.155 86.5909 158.884 87.1896C156.964 87.6518 154.999 87.7248 153.057 88.0654C153.649 87.2041 154.2 86.3109 154.709 85.3894C155.38 84.4657 155.79 83.3504 155.892 82.1781C155.892 81.3996 154.977 81.1806 154.508 81.6185C153.329 83.114 152.303 84.7455 151.45 86.4841C150.396 88.0626 149.215 89.5362 147.923 90.8874C145.33 93.5781 142.302 95.7226 138.993 97.2127C132.003 100.326 124.171 100.326 117.182 97.2127C113.196 95.4302 109.513 92.9301 106.287 89.817C105.93 89.4521 105.283 90.1089 105.573 90.5469C107.031 92.6796 108.786 94.5511 110.775 96.0936H110.574C102.979 100.979 94.5588 104.148 85.816 105.411C81.5431 105.991 77.2273 106.097 72.9348 105.727C68.8972 105.469 64.9061 104.652 61.0582 103.295C59.1894 102.631 57.4269 101.655 55.8342 100.4C54.5736 99.3164 53.5259 97.9678 52.7535 96.4342L53.1107 96.2152C54.9604 95.053 56.683 93.6655 58.2453 92.0795C60.0138 90.5423 61.3963 88.542 62.2637 86.2652C62.6432 84.8298 60.9689 84.8298 60.2991 85.511C59.7167 86.2096 59.1867 86.9581 58.7141 87.7492C58.1539 88.5425 57.55 89.298 56.9058 90.0116C55.6707 91.3901 54.2922 92.6066 52.7981 93.6365C49.847 95.728 46.5079 97.0822 43.02 97.6019C39.5173 98.0783 35.9614 97.7085 32.6047 96.5186C29.248 95.3287 26.1729 93.348 23.5977 90.7171C20.6537 87.7842 18.4283 84.0964 17.1237 79.9886C16.8558 79.1371 15.6056 79.7939 15.8288 80.5968C16.1295 81.6489 16.4873 82.6806 16.9004 83.6864C15.9429 83.617 14.9892 83.4953 14.0429 83.3215C12.7216 82.9231 11.4695 82.2902 10.337 81.4482C7.98439 79.658 6.21083 77.1037 5.26939 74.1499C4.36826 70.9383 4.20021 67.5355 4.77989 64.2371C5.35957 60.9387 6.66944 57.8443 8.59571 55.2228C10.6705 52.256 13.1736 49.6761 16.0074 47.5839C16.8111 46.9757 16.0075 45.9296 15.2484 46.4648C12.0622 48.5876 9.23735 51.2955 6.89907 54.4687C3.6856 50.3784 2.08133 45.0725 2.43418 39.7017C2.93167 34.2472 4.91412 29.0793 8.12692 24.8617C13.9245 17.2127 22.2285 12.3259 31.2774 11.2381C36.1938 10.6685 41.1637 11.0307 45.9668 12.3085C42.3341 15.371 39.091 18.9461 36.3227 22.9398C36.1714 23.0966 36.0509 23.2853 35.9686 23.4944C35.8863 23.7035 35.8438 23.9286 35.8438 24.1562C35.8438 24.3837 35.8863 24.6089 35.9686 24.818C36.0509 25.0271 36.1714 25.2158 36.3227 25.3726C36.709 25.6137 37.1615 25.6971 37.5992 25.608C38.0368 25.5188 38.4311 25.2629 38.7114 24.886C46.6331 13.3569 58.2734 5.53213 71.2828 2.99095C84.2289 0.603516 97.5225 3.7115 108.431 11.676C114.653 16.008 119.975 21.709 124.058 28.4135C124.259 28.7298 124.772 28.4136 124.594 28C123.55 25.9911 122.379 24.0644 121.089 22.2343C124.183 18.3126 128.139 15.3081 132.586 13.5006C136.987 11.6324 141.719 10.8755 146.427 11.2868C150.976 11.6181 155.35 13.3228 159.061 16.2102C162.771 19.0976 165.67 23.0536 167.434 27.6351C169.301 32.7466 169.372 38.4287 167.635 43.5941C167.122 45.0051 168.997 45.5403 169.443 44.2753C169.912 43.009 170.271 41.6977 170.515 40.3585L171.408 41.3073C172.161 42.156 172.862 43.0581 173.506 44.0077C174.717 45.7929 175.728 47.7283 176.52 49.7734C178.102 53.9777 178.767 58.5246 178.462 63.0564Z" fill="white"/>
<g style="mix-blend-mode:multiply">
<path d="M177.994 55.5878C177.41 59.6503 176.057 63.5359 174.02 66.9975C171.925 70.3717 169.154 73.1833 165.916 75.2203C160.447 78.8208 151.383 82.5187 146.226 76.7773C143.504 78.6252 140.548 80.0269 137.452 80.9374C129.225 83.302 120.524 82.7828 112.583 79.4534C108.566 77.7185 104.805 75.3496 101.421 72.4226C99.1883 70.5494 95.929 68.0193 95.3039 64.7594C94.1203 66.0728 92.852 67.2923 91.5087 68.4085C88.7432 70.7883 85.5823 72.5643 82.1994 73.639C79.6305 74.3245 77.0059 74.7319 74.3635 74.8554C71.3655 75.1079 68.3497 74.8286 65.4338 74.0283C64.2433 73.7822 63.124 73.2299 62.1688 72.4175C61.2136 71.6051 60.4501 70.556 59.9419 69.3573C59.2253 69.8558 58.4796 70.3027 57.7095 70.6953C51.5926 73.712 41.7698 74.2959 36.9254 68.8951C34.0866 69.0541 31.2598 68.391 28.7324 66.9732C24.2675 64.5404 19.0436 60.3074 17.9497 54.6146C17.5246 51.2097 18.0701 47.7447 19.5124 44.6889C20.2598 42.6579 21.2751 40.7565 22.5262 39.0448C20.3644 39.1786 18.1958 39.0069 16.0744 38.5339C11.8551 37.5851 6.85443 35.128 4.64431 30.822C3.3883 33.6001 2.63058 36.6139 2.41187 39.7017C2.06516 45.0758 3.67756 50.3821 6.89907 54.4687C9.30027 51.3217 12.186 48.6545 15.427 46.5865C16.2307 46.0512 16.9897 47.0973 16.186 47.7055C13.3522 49.7978 10.8491 52.3777 8.77431 55.3445C6.84803 57.966 5.53817 61.0603 4.95849 64.3587C4.3788 67.6572 4.54685 71.0599 5.44799 74.2715C6.38942 77.2254 8.16299 79.7797 10.5156 81.5699C11.6481 82.4119 12.9002 83.0448 14.2215 83.4431C15.1678 83.6169 16.1215 83.7387 17.079 83.808C16.6659 82.8022 16.3081 81.7705 16.0074 80.7184C15.7842 79.9156 17.0344 79.2587 17.3023 80.1102C18.6069 84.218 20.8323 87.9058 23.7763 90.8388C26.3515 93.4697 29.4266 95.4504 32.7833 96.6402C36.14 97.8301 39.6959 98.2 43.1986 97.7236C46.6865 97.2038 50.0256 95.8497 52.9767 93.7581C54.4708 92.7282 55.8493 91.5117 57.0844 90.1333C57.7286 89.4196 58.3324 88.6641 58.8927 87.8708C59.3652 87.0797 59.8953 86.3313 60.4777 85.6326C61.1475 84.9515 62.8218 84.9515 62.4423 86.3868C61.5749 88.6636 60.1924 90.6639 58.4239 92.2011C56.843 93.8087 55.0976 95.2127 53.2223 96.3855L52.8651 96.6045C53.6375 98.1381 54.6852 99.4867 55.9459 100.57C57.5385 101.825 59.301 102.802 61.1698 103.465C65.0178 104.822 69.0088 105.64 73.0464 105.898C77.3389 106.267 81.6547 106.161 85.9276 105.581C94.6704 104.318 103.09 101.149 110.685 96.2639H110.886C108.898 94.7214 107.143 92.8499 105.685 90.7172C105.395 90.2793 106.042 89.6224 106.399 89.9873C109.595 92.9894 113.223 95.3977 117.137 97.1154C124.127 100.229 131.959 100.229 138.948 97.1154C142.257 95.6253 145.285 93.4808 147.878 90.7901C149.171 89.4389 150.351 87.9653 151.405 86.3868C152.259 84.6482 153.284 83.0167 154.464 81.5212C154.932 81.0833 155.848 81.3023 155.848 82.0808C155.746 83.2531 155.335 84.3683 154.665 85.292C154.155 86.2136 153.604 87.1068 153.013 87.9681C154.955 87.6275 156.919 87.5545 158.839 87.0923C161.122 86.5285 163.328 85.6454 165.403 84.4649C169.068 82.3978 172.19 79.3479 174.475 75.6025C176.76 71.8571 178.132 67.5395 178.462 63.0564C178.604 60.5552 178.447 58.0446 177.994 55.5878Z" fill="#EDEDED"/>
</g>
</svg>
