<svg width="35" height="35" viewBox="0 0 35 35" fill="none" xmlns="http://www.w3.org/2000/svg">
<g clip-path="url(#clip0_2_943)">
<path d="M17.4946 34.9891C27.1566 34.9891 34.9891 27.1566 34.9891 17.4946C34.9891 7.83258 27.1566 0 17.4946 0C7.83258 0 0 7.83258 0 17.4946C0 27.1566 7.83258 34.9891 17.4946 34.9891Z" fill="#EF4361"/>
<path d="M27.3067 11.3008C28.4477 9.4753 27.8935 7.07387 26.068 5.93292C24.2425 4.79197 21.841 5.34614 20.7001 7.17166L23.71 9.05151L23.0798 10.0512C21.4933 8.94285 19.5591 8.29088 17.4837 8.29088C15.4083 8.29088 13.4849 8.94285 11.9093 10.0403L11.29 9.05151L14.2999 7.17166C13.1481 5.34614 10.7467 4.79197 8.92114 5.93292C7.09562 7.07387 6.55231 9.4753 7.69326 11.3008L10.7032 9.42096L11.3552 10.4533C9.13847 12.2462 7.71499 14.9845 7.71499 18.0596C7.71499 21.6889 9.69264 24.8618 12.6374 26.5461L11.5508 29.6538H13.4849L14.2564 27.285C15.267 27.6436 16.3536 27.8392 17.4837 27.8392C18.6355 27.8392 19.7439 27.6327 20.7653 27.2741L21.5368 29.6647H23.3949L22.3735 26.5352H22.3626C25.2748 24.8401 27.2415 21.6889 27.2415 18.0813C27.2415 15.0171 25.8289 12.2896 23.6231 10.4967L24.2859 9.4427L27.3067 11.3008Z" fill="#FCC16A"/>
<path d="M17.4946 26.9155C22.3856 26.9155 26.3505 22.9506 26.3505 18.0596C26.3505 13.1686 22.3856 9.20363 17.4946 9.20363C12.6036 9.20363 8.63862 13.1686 8.63862 18.0596C8.63862 22.9506 12.6036 26.9155 17.4946 26.9155Z" fill="#E6E7E8"/>
<path d="M17.8966 9.95338H17.1034V12.0288H17.8966V9.95338Z" fill="#808285"/>
<path d="M17.8966 23.9273H17.1034V26.0027H17.8966V23.9273Z" fill="#808285"/>
<path d="M25.5245 18.3788V17.5855H23.449V18.3788H25.5245Z" fill="#808285"/>
<path d="M11.5499 18.3794V17.5861H9.47445V18.3794H11.5499Z" fill="#808285"/>
<path d="M19.9829 14.1804C19.896 14.1152 19.7656 14.1369 19.7004 14.2239L17.7119 16.9839C17.6467 16.9621 17.5706 16.9404 17.4837 16.9404C17.0925 16.9404 16.7665 17.2664 16.7665 17.6576C16.7665 17.8966 16.8861 18.1139 17.0708 18.2443C17.0599 18.2769 17.0491 18.3095 17.0491 18.3421L16.7883 20.8522C16.7665 21.0696 16.9295 21.2651 17.1468 21.2869C17.3642 21.3086 17.5598 21.1456 17.5815 20.9283L17.8423 18.4182C17.8423 18.3747 17.8423 18.3204 17.8314 18.2769C18.0596 18.1574 18.2117 17.9184 18.2117 17.6467C18.2117 17.4728 18.1465 17.3207 18.0487 17.1903L20.0264 14.4412C20.0916 14.3651 20.0807 14.2456 19.9829 14.1804Z" fill="#808285"/>
</g>
<defs>
<clipPath id="clip0_2_943">
<rect width="34.7154" height="34.7154" fill="white" transform="scale(1.0082)"/>
</clipPath>
</defs>
</svg>
