<svg width="161" height="49" viewBox="0 0 161 49" fill="none" xmlns="http://www.w3.org/2000/svg">
<path d="M15.4509 7.30145H15.3413L15.2323 7.31344C13.002 7.55877 10.4286 7.95234 8.16651 8.78608C5.93617 9.60813 3.68303 10.9792 2.55957 13.3925C1.90773 14.7063 1.81847 16.2016 2.32819 17.5831L2.38039 17.7246L2.45321 17.8566C3.20596 19.2216 4.36669 20.3349 5.76051 21.1101L9.0737 23.3043C8.74517 23.4191 8.42206 23.544 8.10757 23.6801C6.32972 24.4498 4.42822 25.7576 3.7584 28.0231L3.73721 28.0948L3.72142 28.1679C3.45247 29.4129 3.56056 30.6936 4.02546 31.8801L4.02546 31.8802C4.48869 33.0624 5.28022 34.0879 6.28724 34.884L6.29832 34.8927L6.30953 34.9014C6.73283 35.2264 7.17078 35.5353 7.62207 35.8276C7.083 36.2768 6.61583 36.807 6.24775 37.4081L6.23165 37.4344L6.21637 37.4612C5.58275 38.5714 5.3245 39.8427 5.50623 41.1126C5.68692 42.3753 6.28549 43.5227 7.17137 44.4339C8.5221 45.8435 10.3429 46.4554 12.0102 46.7389C13.6929 47.0251 15.4815 47.0179 16.9879 46.9827L16.9881 46.9827C57.4138 46.0336 97.8333 45.8184 138.247 46.337C139.98 46.3604 141.968 46.3555 143.862 46.0522C145.756 45.7491 147.737 45.1219 149.346 43.7638L149.367 43.7462L149.387 43.7281C150.688 42.5681 151.566 41.0325 151.805 39.3248C152.044 37.6124 151.613 35.9074 150.633 34.4756C150.539 34.337 150.432 34.1934 150.335 34.0653C150.353 34.0619 150.373 34.0584 150.393 34.0548C150.549 34.0266 150.736 33.9931 150.923 33.955C151.289 33.8805 151.763 33.7683 152.236 33.5635C154.05 32.7841 154.793 31.1707 154.847 29.6546C154.898 28.2359 154.379 26.8131 153.63 25.7406C153.331 25.3124 153.002 24.8972 152.716 24.5351L152.672 24.4804C152.361 24.0866 152.097 23.7498 151.869 23.4182C151.412 22.7518 151.274 22.3412 151.269 22.039C151.286 21.5666 151.638 20.9769 153.004 19.8991C153.291 19.6727 153.591 19.4479 153.914 19.2049L154.005 19.1364C154.356 18.8732 154.732 18.5895 155.099 18.2936C155.821 17.7124 156.607 17.0097 157.225 16.154C158.353 14.6167 159.034 13.0278 158.998 11.4173C158.96 9.73525 158.151 8.39315 157.037 7.39484C155.961 6.43135 154.554 5.7348 153.077 5.20945C151.581 4.67709 149.889 4.27745 148.144 3.97171C142.783 3.03217 136.302 2.89785 132.533 2.81975C131.476 2.79784 130.633 2.78035 130.087 2.75075C91.8137 0.650431 53.4356 3.20875 15.473 7.30145H15.4509Z" fill="#CD3F97"/>
<path d="M15.4509 7.30145H15.3413L15.2323 7.31344C13.002 7.55877 10.4286 7.95234 8.16651 8.78608C5.93617 9.60813 3.68303 10.9792 2.55957 13.3925C1.90773 14.7063 1.81847 16.2016 2.32819 17.5831L2.38039 17.7246L2.45321 17.8566C3.20596 19.2216 4.36669 20.3349 5.76051 21.1101L9.0737 23.3043C8.74517 23.4191 8.42206 23.544 8.10757 23.6801C6.32972 24.4498 4.42822 25.7576 3.7584 28.0231L3.73721 28.0948L3.72142 28.1679C3.45247 29.4129 3.56056 30.6936 4.02546 31.8801L4.02546 31.8802C4.48869 33.0624 5.28022 34.0879 6.28724 34.884L6.29832 34.8927L6.30953 34.9014C6.73283 35.2264 7.17078 35.5353 7.62207 35.8276C7.083 36.2768 6.61583 36.807 6.24775 37.4081L6.23165 37.4344L6.21637 37.4612C5.58275 38.5714 5.3245 39.8427 5.50623 41.1126C5.68692 42.3753 6.28549 43.5227 7.17137 44.4339C8.5221 45.8435 10.3429 46.4554 12.0102 46.7389C13.6929 47.0251 15.4815 47.0179 16.9879 46.9827L16.9881 46.9827C57.4138 46.0336 97.8333 45.8184 138.247 46.337C139.98 46.3604 141.968 46.3555 143.862 46.0522C145.756 45.7491 147.737 45.1219 149.346 43.7638L149.367 43.7462L149.387 43.7281C150.688 42.5681 151.566 41.0325 151.805 39.3248C152.044 37.6124 151.613 35.9074 150.633 34.4756C150.539 34.337 150.432 34.1934 150.335 34.0653C150.353 34.0619 150.373 34.0584 150.393 34.0548C150.549 34.0266 150.736 33.9931 150.923 33.955C151.289 33.8805 151.763 33.7683 152.236 33.5635C154.05 32.7841 154.793 31.1707 154.847 29.6546C154.898 28.2359 154.379 26.8131 153.63 25.7406C153.331 25.3124 153.002 24.8972 152.716 24.5351L152.672 24.4804C152.361 24.0866 152.097 23.7498 151.869 23.4182C151.412 22.7518 151.274 22.3412 151.269 22.039C151.286 21.5666 151.638 20.9769 153.004 19.8991C153.291 19.6727 153.591 19.4479 153.914 19.2049L154.005 19.1364C154.356 18.8732 154.732 18.5895 155.099 18.2936C155.821 17.7124 156.607 17.0097 157.225 16.154C158.353 14.6167 159.034 13.0278 158.998 11.4173C158.96 9.73525 158.151 8.39315 157.037 7.39484C155.961 6.43135 154.554 5.7348 153.077 5.20945C151.581 4.67709 149.889 4.27745 148.144 3.97171C142.783 3.03217 136.302 2.89785 132.533 2.81975C131.476 2.79784 130.633 2.78035 130.087 2.75075C91.8137 0.650431 53.4356 3.20875 15.473 7.30145H15.4509Z" stroke="#AA1070" stroke-width="4"/>
<path d="M15.4509 7.30145H15.3413L15.2323 7.31344C13.002 7.55877 10.4286 7.95234 8.16651 8.78608C5.93617 9.60813 3.68303 10.9792 2.55957 13.3925C1.90773 14.7063 1.81847 16.2016 2.32819 17.5831L2.38039 17.7246L2.45321 17.8566C3.20596 19.2216 4.36669 20.3349 5.76051 21.1101L9.0737 23.3043C8.74517 23.4191 8.42206 23.544 8.10757 23.6801C6.32972 24.4498 4.42822 25.7576 3.7584 28.0231L3.73721 28.0948L3.72142 28.1679C3.45247 29.4129 3.56056 30.6936 4.02546 31.8801L4.02546 31.8802C4.48869 33.0624 5.28022 34.0879 6.28724 34.884L6.29832 34.8927L6.30953 34.9014C6.73283 35.2264 7.17078 35.5353 7.62207 35.8276C7.083 36.2768 6.61583 36.807 6.24775 37.4081L6.23165 37.4344L6.21637 37.4612C5.58275 38.5714 5.3245 39.8427 5.50623 41.1126C5.68692 42.3753 6.28549 43.5227 7.17137 44.4339C8.5221 45.8435 10.3429 46.4554 12.0102 46.7389C13.6929 47.0251 15.4815 47.0179 16.9879 46.9827L16.9881 46.9827C57.4138 46.0336 97.8333 45.8184 138.247 46.337C139.98 46.3604 141.968 46.3555 143.862 46.0522C145.756 45.7491 147.737 45.1219 149.346 43.7638L149.367 43.7462L149.387 43.7281C150.688 42.5681 151.566 41.0325 151.805 39.3248C152.044 37.6124 151.613 35.9074 150.633 34.4756C150.539 34.337 150.432 34.1934 150.335 34.0653C150.353 34.0619 150.373 34.0584 150.393 34.0548C150.549 34.0266 150.736 33.9931 150.923 33.955C151.289 33.8805 151.763 33.7683 152.236 33.5635C154.05 32.7841 154.793 31.1707 154.847 29.6546C154.898 28.2359 154.379 26.8131 153.63 25.7406C153.331 25.3124 153.002 24.8972 152.716 24.5351L152.672 24.4804C152.361 24.0866 152.097 23.7498 151.869 23.4182C151.412 22.7518 151.274 22.3412 151.269 22.039C151.286 21.5666 151.638 20.9769 153.004 19.8991C153.291 19.6727 153.591 19.4479 153.914 19.2049L154.005 19.1364C154.356 18.8732 154.732 18.5895 155.099 18.2936C155.821 17.7124 156.607 17.0097 157.225 16.154C158.353 14.6167 159.034 13.0278 158.998 11.4173C158.96 9.73525 158.151 8.39315 157.037 7.39484C155.961 6.43135 154.554 5.7348 153.077 5.20945C151.581 4.67709 149.889 4.27745 148.144 3.97171C142.783 3.03217 136.302 2.89785 132.533 2.81975C131.476 2.79784 130.633 2.78035 130.087 2.75075C91.8137 0.650431 53.4356 3.20875 15.473 7.30145H15.4509Z" stroke="white" stroke-width="4"/>
</svg>
