<svg width="63" height="57" viewBox="0 0 63 57" fill="none" xmlns="http://www.w3.org/2000/svg">
<path d="M1.41745 19.153C1.19695 20.4462 1.43214 21.7758 2.08287 22.9148C2.64255 24.6689 3.53719 26.3808 4.25186 28.0763C5.6095 31.3082 6.97762 34.5328 8.35625 37.75C10.5633 42.9172 12.92 48.0346 15.0346 53.2456C15.0185 53.1754 15.0189 53.1025 15.0358 53.0325C15.066 52.8493 15.1049 52.6714 15.1421 52.4865C13.4939 45.4853 9.89702 38.9649 7.18678 32.3458C6.13105 29.7521 5.10776 27.1508 4.11692 24.5419C3.38626 22.6226 2.5771 20.8686 3.43943 18.8898C3.47277 18.8112 3.52815 18.7438 3.5989 18.6959C3.66965 18.648 3.75274 18.6216 3.83817 18.6199C3.78416 18.3904 3.67984 18.1655 3.59802 17.9426L1.41745 19.153Z" fill="#DA9A36"/>
<path d="M47.3268 2.93005C47.6136 3.86782 47.819 4.80273 48.0113 5.30781C49.1644 8.37751 50.3211 11.4415 51.4813 14.4997C53.9081 20.9434 56.5656 27.3694 58.6059 33.9481L58.9326 33.8712C59.3707 33.7681 59.5343 34.4633 59.0963 34.5664L58.4011 34.7301C58.346 34.7393 58.2896 34.735 58.2367 34.7175L58.0698 34.7567C59.0184 35.0385 59.9256 35.4442 60.768 35.9634C60.8635 36.0295 60.9312 36.1285 60.9582 36.2414L61.1946 36.1858C59.5654 30.6991 57.5751 25.3927 55.4413 20.0688C54.5049 17.743 53.5754 15.4156 52.733 13.053C52.2735 11.7866 51.844 10.5131 51.4447 9.23244C51.2357 8.56255 49.3748 1.03174 47.3268 2.93005Z" fill="#DA9A36"/>
<path d="M15.0485 53.2422C15.3753 54.0384 15.6899 54.8449 16.0029 55.6444C21.3482 51.3262 27.7321 48.0843 34.578 47.2726L34.6197 47.2627C34.6577 47.1927 34.7117 47.1327 34.7773 47.0874C34.8428 47.0422 34.9181 47.013 34.9971 47.0023C35.076 46.9915 35.1564 46.9996 35.2317 47.0257C35.3069 47.0518 35.375 47.0953 35.4303 47.1526C36.0262 47.7828 36.6345 48.9017 37.6341 48.9086C38.5159 48.9138 40.1385 47.0789 39.785 46.2009C39.7566 46.1476 39.7416 46.0883 39.7413 46.0279C39.741 45.9676 39.7554 45.9081 39.7833 45.8545C39.8111 45.801 39.8516 45.7551 39.9012 45.7207C39.9508 45.6863 40.0081 45.6646 40.068 45.6573C40.1034 45.5975 40.1514 45.5462 40.2087 45.5068C46.4654 40.9485 53.9104 38.3037 61.6406 37.8933C61.5031 37.3093 61.3116 36.7453 61.1324 36.1711L60.896 36.2267C60.9149 36.2841 60.9212 36.3448 60.9146 36.4047C60.9079 36.4647 60.8885 36.5226 60.8575 36.5744C60.8266 36.6262 60.7849 36.6707 60.7352 36.705C60.6856 36.7393 60.6291 36.7626 60.5697 36.7732C52.6719 37.7235 45.1944 40.8532 38.9744 45.812C38.8982 45.8737 38.8029 45.9068 38.7049 45.9058C38.6069 45.9048 38.5123 45.8696 38.4374 45.8064C38.4098 45.8871 38.3558 45.9561 38.2841 46.0023C38.2124 46.0485 38.1272 46.0691 38.0423 46.0608C38.0248 46.1043 37.9971 46.1429 37.9615 46.1735C37.9259 46.204 37.8835 46.2256 37.8379 46.2363C37.7922 46.2471 37.7446 46.2467 37.6992 46.2352C37.6537 46.2238 37.6116 46.2015 37.5765 46.1704C37.3814 46.014 37.1679 45.882 36.9409 45.7771C36.9129 45.7912 36.8819 45.7984 36.8505 45.7983C29.1716 46.1068 21.7746 48.7757 15.6677 53.4413C15.6157 53.4762 15.5566 53.4989 15.4946 53.5076C15.4326 53.5164 15.3694 53.511 15.3098 53.4918C15.2502 53.4727 15.1958 53.4402 15.1505 53.397C15.1052 53.3538 15.0704 53.3008 15.0485 53.2422Z" fill="#DA9A36"/>
<path d="M0.0196879 20.3846C0.174024 21.7571 1.23102 23.3795 1.76243 24.6706C2.65956 26.8295 3.56202 28.9798 4.47306 31.1355C8.0084 39.4828 11.3785 48.0012 15.4856 56.0965C15.2194 56.5554 15.799 57.2408 16.3094 56.9152L16.7621 56.6252C16.8502 56.5663 16.9222 56.4863 16.9715 56.3925C22.3021 52.1364 28.1544 49.7535 34.7695 48.0861C35.5148 49.3195 36.9734 50.4657 38.4403 49.8709C39.4856 49.4487 40.8793 47.7632 40.6926 46.4716C46.9451 42.175 54.1525 39.4708 61.6881 38.594C61.7505 38.5825 61.8075 38.551 61.8505 38.5044C61.8981 38.5506 61.959 38.5806 62.0247 38.5901C62.0904 38.5995 62.1573 38.588 62.216 38.5571C62.2747 38.5261 62.3221 38.4774 62.3514 38.4179C62.3808 38.3584 62.3905 38.2912 62.3793 38.2258C60.7943 29.1551 56.3833 20.8598 53.3281 12.2453C52.8277 10.8368 50.7018 -1.21769 46.9055 1.9507C46.7021 1.28898 46.2932 0.709277 45.7381 0.295685C43.3548 -1.00707 38.721 2.34382 36.7879 3.5767C32.6607 6.26552 29.2054 9.8654 26.688 14.0993C26.5297 14.0835 26.3706 14.1209 26.236 14.2057C19.1675 9.67657 10.0455 9.32912 2.32343 12.3724C2.20279 12.4241 2.10735 12.5213 2.0577 12.6428C2.00805 12.7643 2.00818 12.9005 2.05807 13.0219C1.99486 13.0788 1.95143 13.1543 1.93408 13.2376C1.91673 13.3208 1.92637 13.4075 1.9616 13.4849C2.39934 14.6586 2.82481 15.8426 3.25192 17.0335C1.55312 17.9837 -0.206296 18.3025 0.0196879 20.3846ZM2.08287 22.9148C1.43215 21.7757 1.19696 20.4462 1.41746 19.153L3.60374 17.9046C3.65775 18.134 3.76207 18.3589 3.84389 18.5818C3.75847 18.5836 3.67537 18.61 3.60463 18.6579C3.53388 18.7058 3.4785 18.7731 3.44516 18.8518C2.58283 20.8305 3.392 22.5846 4.12265 24.5039C5.11458 27.1174 6.13787 29.7187 7.19251 32.3077C9.90766 38.9477 13.532 45.491 15.1478 52.4484C15.1106 52.6333 15.0718 52.8112 15.0415 52.9944C15.0246 53.0644 15.0242 53.1374 15.0403 53.2075C15.0577 53.2769 15.0927 53.3407 15.142 53.3925C15.1913 53.4444 15.2532 53.4826 15.3216 53.5034C15.3901 53.5243 15.4628 53.527 15.5326 53.5114C15.6024 53.4958 15.667 53.4624 15.7201 53.4144C21.8269 48.7488 29.224 46.0799 36.9029 45.7715C36.9343 45.7716 36.9653 45.7643 36.9933 45.7502C37.2203 45.8551 37.4338 45.9872 37.6289 46.1435C37.664 46.1747 37.7061 46.1969 37.7515 46.2083C37.797 46.2198 37.8446 46.2202 37.8902 46.2094C37.9359 46.1987 37.9783 46.1771 38.0139 46.1466C38.0494 46.116 38.0772 46.0774 38.0947 46.0339C38.1796 46.0422 38.2648 46.0216 38.3365 45.9754C38.4082 45.9292 38.4622 45.8602 38.4898 45.7795C38.5646 45.8427 38.6592 45.8779 38.7572 45.8789C38.8553 45.8799 38.9506 45.8468 39.0268 45.7851C45.2578 40.8361 52.7436 37.7196 60.6458 36.7847C60.7052 36.7741 60.7617 36.7509 60.8113 36.7166C60.861 36.6823 60.9027 36.6377 60.9336 36.5859C60.9646 36.5341 60.984 36.4763 60.9907 36.4163C60.9973 36.3563 60.991 36.2956 60.9721 36.2383C60.9452 36.1253 60.8774 36.0263 60.7819 35.9602C59.9475 35.4205 59.0451 34.9939 58.0985 34.6914L58.2653 34.6521C58.3183 34.6697 58.3747 34.674 58.4297 34.6648L59.125 34.5011C59.563 34.398 59.3993 33.7028 58.9613 33.8059L58.6346 33.8828C56.5942 27.3041 53.9368 20.8781 51.51 14.4344C50.3476 11.3669 49.1909 8.30292 48.04 5.24249C47.8477 4.73741 47.6423 3.8025 47.3555 2.86473C49.4035 0.966417 51.2644 8.49722 51.4701 9.15321C51.8705 10.4385 52.3 11.712 52.7584 12.9738C53.6008 15.3364 54.5368 17.6916 55.4667 19.9896C57.6005 25.3135 59.5924 30.6268 61.22 36.1066C61.3992 36.6808 61.5628 37.2513 61.7281 37.8287C53.9931 38.2328 46.5418 40.874 40.279 45.4316C40.2218 45.471 40.1738 45.5224 40.1384 45.5822C40.0784 45.5894 40.0212 45.6112 39.9716 45.6455C39.922 45.6799 39.8815 45.7258 39.8536 45.7794C39.8258 45.8329 39.8114 45.8924 39.8117 45.9528C39.812 46.0131 39.827 46.0725 39.8554 46.1257C40.2432 47.025 38.5928 48.8665 37.7044 48.8334C36.7049 48.8266 36.0966 47.7077 35.5007 47.0775C35.4453 47.0202 35.3773 46.9767 35.302 46.9505C35.2268 46.9244 35.1464 46.9164 35.0675 46.9271C34.9885 46.9378 34.9132 46.967 34.8476 47.0123C34.7821 47.0575 34.7281 47.1176 34.6901 47.1876L34.6483 47.1974C27.7747 48.0157 21.3908 51.2576 16.0733 55.5693C15.7603 54.7698 15.4457 53.9633 15.1188 53.167C13.0042 47.956 10.6475 42.8387 8.4405 37.6714C7.05615 34.4507 5.68802 31.2261 4.33611 27.9978C3.53719 26.3807 2.6491 24.6966 2.08287 22.9148ZM6.87604 29.3737C5.8394 26.778 3.16049 22.4116 4.14909 19.4419C7.13027 27.8977 10.0109 36.4872 13.7768 44.5675C13.7786 44.6492 13.7986 44.7295 13.8353 44.8025C13.872 44.8755 13.9246 44.9395 13.9891 44.9896C14.0536 45.0398 14.1285 45.075 14.2083 45.0925C14.2881 45.1101 14.3709 45.1097 14.4505 45.0913L14.9916 44.9273C15.3287 46.3595 15.6258 47.8085 15.9437 49.2526C15.8886 49.2719 15.8398 49.3059 15.8026 49.3508C15.7653 49.3958 15.7411 49.4501 15.7323 49.5078L15.3632 51.3998C14.7181 46.5399 12.2204 42.1015 10.2997 37.652C9.11202 34.9133 7.97079 32.1539 6.87604 29.3737ZM14.171 43.9977C11.2289 33.5882 6.83287 23.4549 3.08138 13.3166C10.8963 10.4496 18.7452 11.2802 26.1371 14.8454C29.8113 24.811 33.1002 35.0729 37.3703 44.7956C30.0483 41.4667 21.7044 41.1797 14.171 43.9977ZM16.0373 52.1437L16.4109 50.1772C16.4695 50.1985 16.5319 50.2071 16.5941 50.2026C16.6562 50.1981 16.7167 50.1805 16.7716 50.151C19.7602 48.4121 22.9961 47.1382 26.368 46.373C28.1826 45.9458 32.3055 44.9753 35.215 45.3029C28.2722 45.5762 21.5806 47.9737 16.0439 52.1715L16.0373 52.1437ZM17.3858 48.7076C16.2369 48.347 16.0616 45.9815 15.8545 44.6654C21.7722 42.8922 28.0697 42.8211 34.026 44.4602C31.7904 44.5287 29.5662 44.8067 27.3826 45.2903C25.1113 45.6914 22.888 46.3279 20.7487 47.1895C20.2718 47.3458 17.8925 48.8965 17.3923 48.7355L17.3858 48.7076ZM27.461 14.9519C27.5356 14.9034 27.5981 14.8385 27.6438 14.7622C30.0678 10.6469 33.406 7.1445 37.4002 4.52589C38.9996 3.4963 41.4141 1.78321 43.3105 1.57892C44.4668 0.817541 45.3319 1.27183 45.9061 2.94178C46.0681 3.3806 46.237 3.81778 46.4072 4.29137C46.8952 5.33586 47.2414 6.49447 47.6493 7.57251C51.0145 16.4442 54.0804 25.5405 57.9475 34.206C57.7212 34.2973 57.501 34.4031 57.2883 34.5226L57.1484 34.4895C57.0918 34.471 57.0304 34.4746 56.9764 34.4996C56.9224 34.5246 56.8798 34.569 56.8572 34.6241C49.9239 35.9994 42.7331 39.0864 38.1522 44.6262C35.1725 34.5557 31.0975 24.7577 27.461 14.9519ZM41.5204 42.9747C46.1522 39.1474 51.3268 36.7845 57.3452 35.0449C58.0253 35.3219 58.6793 35.659 59.2994 36.0524C52.9268 36.9893 46.8488 39.3558 41.5204 42.9747Z" fill="#222221"/>
<path d="M4.14909 19.4419C3.1605 22.4117 5.87417 26.7699 6.87605 29.3738C7.9847 32.1506 9.12415 34.9129 10.2944 37.6606C12.2151 42.1101 14.7128 46.5486 15.3579 51.4084L15.7376 49.4993C15.7464 49.4415 15.7707 49.3873 15.8079 49.3423C15.8452 49.2973 15.894 49.2634 15.9491 49.244C15.6103 47.8049 15.2715 46.3657 14.9969 44.9187L14.4558 45.0828C14.3762 45.1012 14.2934 45.1016 14.2136 45.084C14.1338 45.0664 14.0589 45.0313 13.9944 44.9811C13.9299 44.9309 13.8774 44.867 13.8406 44.794C13.8039 44.721 13.784 44.6407 13.7822 44.559C10.0109 36.4873 7.13028 27.8977 4.14909 19.4419Z" fill="#F5F5F5"/>
<path d="M3.0879 13.3444C6.83611 23.4687 11.2354 33.6159 14.1776 44.0255C21.711 41.2074 30.0548 41.4944 37.3768 44.8233C33.108 35.137 29.8178 24.8388 26.1367 14.8747C18.6961 11.3211 10.9028 10.4774 3.0879 13.3444ZM9.64551 16.8564C9.53487 16.8825 9.41842 16.8635 9.32178 16.8037C9.22513 16.7439 9.1562 16.6481 9.13016 16.5375C9.10411 16.4268 9.12308 16.3104 9.1829 16.2137C9.24271 16.1171 9.33847 16.0482 9.44911 16.0221C14.2116 14.901 21.1569 14.418 25.4384 17.2698C25.4679 17.2884 25.4933 17.3126 25.5134 17.3411C25.5335 17.3695 25.5478 17.4017 25.5554 17.4356C25.5631 17.4696 25.564 17.5048 25.558 17.5391C25.5521 17.5734 25.5395 17.6062 25.5209 17.6356C25.5023 17.6651 25.4781 17.6905 25.4496 17.7106C25.4211 17.7307 25.389 17.745 25.355 17.7526C25.3211 17.7603 25.2859 17.7612 25.2516 17.7552C25.2173 17.7493 25.1845 17.7367 25.1551 17.7181C20.6687 15.2741 14.4424 15.8813 9.64551 16.8564ZM12.6095 28.699C12.0422 28.8766 11.8397 27.985 12.3967 27.7952C16.9429 26.2395 21.8769 26.2368 26.4248 27.7875C26.4868 27.807 26.5385 27.8503 26.5686 27.9079C26.5987 27.9654 26.6046 28.0326 26.5852 28.0946C26.5657 28.1566 26.5224 28.2083 26.4648 28.2384C26.4072 28.2685 26.34 28.2744 26.278 28.255C21.7703 27.1189 17.034 27.2728 12.6095 28.699ZM11.2173 21.2266C11.103 21.2535 10.9826 21.2339 10.8828 21.1721C10.7829 21.1103 10.7117 21.0114 10.6848 20.897C10.6579 20.7827 10.6775 20.6624 10.7393 20.5625C10.8011 20.4627 10.9 20.3914 11.0143 20.3645C15.6755 19.065 20.6427 19.4175 25.0737 21.3621C25.3285 21.4782 25.1359 21.8758 24.8753 21.7977C20.4556 20.3855 15.7383 20.1835 11.214 21.2127L11.2173 21.2266ZM16.774 42.3062C16.4718 42.4874 16.246 42.027 16.5155 41.8314C17.6599 41.036 19.012 40.5927 20.4052 40.5562C20.4497 40.5622 20.4909 40.583 20.5222 40.6152C20.5534 40.6475 20.5729 40.6893 20.5775 40.734C20.5821 40.7787 20.5715 40.8236 20.5475 40.8615C20.5234 40.8995 20.4873 40.9282 20.4449 40.9431C19.1404 41.1396 17.8906 41.6037 16.774 42.3062ZM16.1619 39.706C16.0457 39.7333 15.9234 39.7134 15.822 39.6506C15.7205 39.5878 15.6481 39.4873 15.6208 39.3711C15.5934 39.2549 15.6133 39.1326 15.6761 39.0312C15.7389 38.9297 15.8395 38.8573 15.9557 38.83C18.5985 38.1801 21.3191 37.9027 24.0387 38.0058C25.4673 38.0584 28.4312 37.9624 29.5728 38.9778C29.5917 38.9968 29.6066 39.0194 29.6166 39.0443C29.6265 39.0692 29.6314 39.0959 29.6309 39.1227C29.6304 39.1495 29.6244 39.176 29.6135 39.2005C29.6025 39.225 29.5867 39.247 29.5671 39.2653L29.4914 39.3491C29.4636 39.3787 29.4276 39.3994 29.388 39.4088C29.3485 39.4181 29.3071 39.4155 29.2689 39.4015C29.2482 39.3788 29.2239 39.3598 29.1969 39.3451C29.0804 39.2551 29.1217 39.0252 29.2877 39.0449C24.8949 38.5114 20.4431 38.7378 16.1271 39.7142L16.1619 39.706ZM15.2721 33.6196C15.1651 33.6448 15.0526 33.6264 14.9591 33.5686C14.8657 33.5108 14.7991 33.4182 14.7739 33.3113C14.7487 33.2043 14.7671 33.0918 14.8249 32.9983C14.8827 32.9049 14.9753 32.8383 15.0822 32.8131C19.5831 31.3907 24.4324 31.5289 28.845 33.2054C28.8996 33.2227 28.9452 33.261 28.9716 33.3119C28.998 33.3628 29.0032 33.4221 28.9859 33.4768C28.9686 33.5315 28.9303 33.577 28.8794 33.6034C28.8285 33.6299 28.7692 33.635 28.7145 33.6177C24.2981 32.4461 19.652 32.4496 15.2373 33.6278L15.2721 33.6196ZM18.5592 42.1281C18.2533 42.2001 18.059 41.7176 18.3551 41.6038C19.6088 41.1228 20.9148 40.7907 22.246 40.6145C22.5241 40.549 22.646 41.0046 22.3508 41.0594C21.0504 41.3232 19.7715 41.6831 18.5244 42.1363L18.5592 42.1281Z" fill="#F5F5F5"/>
<path d="M16.4174 50.2049L16.0438 52.1714C21.5857 47.9823 28.2795 45.5946 35.2215 45.3307C32.3169 45.0238 28.1957 46.0014 26.3745 46.4007C23.0026 47.1659 19.7667 48.4398 16.7782 50.1787C16.7233 50.2082 16.6628 50.2258 16.6006 50.2303C16.5384 50.2349 16.476 50.2262 16.4174 50.2049Z" fill="#F5F5F5"/>
<path d="M15.8545 44.6653C16.0681 46.0092 16.2434 48.3748 17.3857 48.7076C17.886 48.8686 20.2603 47.2971 20.7339 47.1269C22.8733 46.2652 25.0966 45.6287 27.3678 45.2277C29.5583 44.7642 31.7875 44.5072 34.026 44.4601C28.0697 42.821 21.7722 42.8922 15.8545 44.6653Z" fill="#F5F5F5"/>
<path d="M9.44911 16.0222C9.33847 16.0483 9.24271 16.1172 9.1829 16.2139C9.12309 16.3105 9.10411 16.427 9.13016 16.5376C9.1562 16.6482 9.22513 16.744 9.32178 16.8038C9.41843 16.8636 9.53487 16.8826 9.64551 16.8565C14.4424 15.8814 20.6687 15.2742 25.1551 17.7182C25.1845 17.7368 25.2173 17.7494 25.2516 17.7554C25.2859 17.7613 25.3211 17.7604 25.355 17.7527C25.389 17.7451 25.4211 17.7308 25.4496 17.7107C25.4781 17.6907 25.5023 17.6652 25.5209 17.6357C25.5395 17.6063 25.5521 17.5735 25.558 17.5392C25.564 17.5049 25.5631 17.4697 25.5554 17.4358C25.5478 17.4018 25.5335 17.3697 25.5134 17.3412C25.4933 17.3128 25.4679 17.2885 25.4384 17.2699C21.1569 14.4182 14.205 14.8733 9.44911 16.0222Z" fill="#222221"/>
<path d="M12.3967 27.7952C11.8397 27.9851 12.0422 28.8766 12.6095 28.6991C17.034 27.2729 21.7703 27.119 26.278 28.255C26.34 28.2745 26.4072 28.2686 26.4648 28.2385C26.5224 28.2084 26.5657 28.1567 26.5852 28.0947C26.6046 28.0327 26.5987 27.9655 26.5686 27.9079C26.5385 27.8503 26.4868 27.807 26.4248 27.7876C21.8769 26.2369 16.9429 26.2396 12.3967 27.7952Z" fill="#222221"/>
<path d="M11.0143 20.3646C10.9 20.3915 10.8011 20.4628 10.7393 20.5626C10.6775 20.6625 10.6579 20.7828 10.6848 20.8972C10.7117 21.0115 10.7829 21.1104 10.8828 21.1722C10.9826 21.234 11.103 21.2537 11.2173 21.2267C15.7393 20.1936 20.4554 20.3908 24.8753 21.7978C25.1359 21.8759 25.3285 21.4783 25.0737 21.3622C20.6427 19.4176 15.6755 19.0651 11.0143 20.3646Z" fill="#222221"/>
<path d="M16.5155 41.8316C16.246 42.0271 16.4718 42.4876 16.774 42.3064C17.8906 41.6039 19.1404 41.1398 20.4449 40.9432C20.4873 40.9283 20.5234 40.8996 20.5475 40.8617C20.5715 40.8237 20.5821 40.7788 20.5776 40.7341C20.573 40.6894 20.5535 40.6476 20.5222 40.6154C20.4909 40.5831 20.4497 40.5623 20.4052 40.5563C19.012 40.5928 17.6599 41.0361 16.5155 41.8316Z" fill="#222221"/>
<path d="M15.9209 38.8381C15.8047 38.8655 15.7042 38.9378 15.6414 39.0393C15.5786 39.1408 15.5587 39.2631 15.586 39.3792C15.6134 39.4954 15.6857 39.596 15.7872 39.6588C15.8887 39.7216 16.011 39.7415 16.1271 39.7141C20.4403 38.7313 24.8905 38.4979 29.2828 39.024C29.1098 39.006 29.0755 39.2342 29.1921 39.3242C29.219 39.3389 29.2433 39.358 29.264 39.3806C29.3022 39.3947 29.3436 39.3972 29.3832 39.3879C29.4227 39.3786 29.4587 39.3578 29.4865 39.3282L29.5622 39.2444C29.5818 39.2261 29.5976 39.2041 29.6086 39.1796C29.6195 39.1551 29.6255 39.1287 29.626 39.1018C29.6265 39.075 29.6217 39.0483 29.6117 39.0234C29.6017 38.9985 29.5868 38.9759 29.5679 38.9569C28.4193 37.9431 25.4624 38.0375 24.0338 37.9849C21.3029 37.8885 18.572 38.1757 15.9209 38.8381Z" fill="#222221"/>
<path d="M15.0475 32.8212C14.9405 32.8464 14.8479 32.913 14.7901 33.0065C14.7323 33.0999 14.714 33.2125 14.7391 33.3194C14.7643 33.4264 14.8309 33.5189 14.9244 33.5767C15.0178 33.6346 15.1304 33.6529 15.2373 33.6277C19.6509 32.4475 24.2963 32.4417 28.7129 33.6107C28.7676 33.628 28.8269 33.6229 28.8777 33.5964C28.9286 33.57 28.9669 33.5245 28.9842 33.4698C29.0015 33.4151 28.9964 33.3558 28.97 33.3049C28.9435 33.254 28.898 33.2157 28.8433 33.1985C24.4191 31.5192 19.5568 31.3863 15.0475 32.8212Z" fill="#222221"/>
<path d="M18.3203 41.612C18.0242 41.7257 18.2267 42.243 18.5244 42.1363C19.7604 41.6875 21.0276 41.3303 22.316 41.0676C22.608 40.9988 22.4959 40.585 22.2113 40.6226C20.88 40.7989 19.5741 41.1309 18.3203 41.612Z" fill="#222221"/>
<path d="M27.6438 14.7621C27.5981 14.8385 27.5355 14.9034 27.461 14.9519C31.0975 24.7577 35.1725 34.5557 38.1927 44.5799C42.7596 39.0434 49.961 35.9393 56.8976 34.5778C56.9202 34.5228 56.9628 34.4783 57.0168 34.4534C57.0708 34.4284 57.1323 34.4248 57.1888 34.4433L57.3287 34.4764C57.5415 34.3569 57.7617 34.2511 57.9879 34.1597C54.1 25.4991 51.055 16.398 47.6897 7.52627C47.2818 6.44824 46.9357 5.28962 46.4477 4.24513C46.2857 3.80631 46.1167 3.36913 45.9465 2.89554C45.3678 1.22668 44.5026 0.772407 43.351 1.5327C41.4267 1.74353 39.0123 3.45661 37.4407 4.47965C33.4265 7.1066 30.0736 10.6256 27.6438 14.7621ZM34.6366 26.0452C34.2497 26.3344 33.7368 25.8388 34.1106 25.494C38.2638 21.6912 43.7488 19.6809 49.2557 19.1036C49.5506 19.0782 49.6693 19.5199 49.3638 19.5625C43.7068 20.3438 39.1027 22.6678 34.6366 26.0452ZM33.5159 17.7311C33.4361 17.8054 33.33 17.8449 33.221 17.8409C33.1121 17.837 33.0092 17.79 32.9349 17.7101C32.8607 17.6303 32.8212 17.5242 32.8251 17.4153C32.829 17.3063 32.8761 17.2034 32.9559 17.1292C36.6968 13.7282 41.3574 11.5055 46.3547 10.739C46.6398 10.6719 46.7531 11.1221 46.4595 11.1839C41.6554 12.2419 37.1961 14.4955 33.495 17.736L33.5159 17.7311ZM37.2339 32.3093C36.9104 32.5249 36.5468 32.0088 36.8326 31.7581C40.5769 28.4625 45.6268 26.5986 50.5149 25.9175C50.8486 25.839 50.9918 26.3849 50.6409 26.4529C45.5378 27.4047 41.4739 29.4987 37.213 32.3142L37.2339 32.3093ZM38.9993 38.3437C38.6063 38.7003 38.0308 38.0947 38.4324 37.7433C42.6887 34.0044 47.6011 31.1823 53.3825 31.054C53.6806 31.0425 53.652 31.4822 53.3641 31.506C47.7574 31.9086 43.1321 34.6411 38.9993 38.3437ZM38.1255 6.57848C37.8474 6.76869 37.5022 6.29962 37.777 6.09551C38.9621 5.20463 40.2903 4.52221 41.7047 4.07756C41.7591 4.06268 41.8171 4.06846 41.8675 4.09378C41.918 4.1191 41.9572 4.16218 41.9778 4.21472C41.9984 4.26727 41.9988 4.32556 41.9789 4.37839C41.9591 4.43121 41.9204 4.47482 41.8704 4.50084C40.5556 5.06608 39.301 5.76213 38.1255 6.57848ZM37.8653 5.47303C37.5614 5.64729 37.3099 5.17085 37.6051 4.99127C39.1516 4.07444 40.7888 3.32017 42.4906 2.74051C42.72 2.6865 42.8624 3.04189 42.6395 3.12371C40.9925 3.7883 39.3967 4.57355 37.8653 5.47303Z" fill="#F5F5F5"/>
<path d="M34.0897 25.4988C33.7159 25.8436 34.2289 26.3393 34.6157 26.0501C39.1027 22.6677 43.7068 20.3438 49.3429 19.5673C49.6419 19.4969 49.5298 19.0831 49.2349 19.1084C43.7002 19.6923 38.2429 21.6961 34.0897 25.4988Z" fill="#222221"/>
<path d="M32.9367 17.1411C32.8569 17.2154 32.8098 17.3183 32.8059 17.4272C32.8019 17.5362 32.8414 17.6422 32.9157 17.7221C32.99 17.8019 33.0929 17.849 33.2018 17.8529C33.3108 17.8568 33.4168 17.8173 33.4967 17.7431C37.2001 14.5071 41.6605 12.2582 46.4644 11.2049C46.7564 11.1361 46.6496 10.7137 46.3596 10.7599C41.3547 11.5193 36.6853 13.7391 32.9367 17.1411Z" fill="#222221"/>
<path d="M36.8118 31.763C36.526 32.0137 36.8896 32.5298 37.2131 32.3143C41.474 29.4988 45.5411 27.4186 50.6201 26.4578C50.9678 26.376 50.836 25.8787 50.4941 25.9225C45.606 26.6035 40.5561 28.4674 36.8118 31.763Z" fill="#222221"/>
<path d="M38.4393 37.7417C38.0378 38.0931 38.6133 38.6987 39.0063 38.342C43.1321 34.6411 47.7578 31.8792 53.371 31.5043C53.659 31.4806 53.6875 31.0409 53.3894 31.0524C47.5888 31.1925 42.6956 34.0027 38.4393 37.7417Z" fill="#222221"/>
<path d="M37.777 6.09559C37.5022 6.29971 37.8475 6.76877 38.1256 6.57857C39.2903 5.76708 40.5332 5.07382 41.8356 4.50911C41.8857 4.48309 41.9244 4.43948 41.9442 4.38666C41.964 4.33383 41.9636 4.27554 41.9431 4.22299C41.9225 4.17045 41.8832 4.12737 41.8328 4.10205C41.7824 4.07673 41.7244 4.07095 41.6699 4.08583C40.2683 4.53158 38.9521 5.21108 37.777 6.09559Z" fill="#222221"/>
<path d="M37.5843 4.99624C37.289 5.17581 37.5406 5.65226 37.8445 5.478C39.3759 4.57851 40.9716 3.79327 42.6187 3.12867C42.8481 3.07466 42.6943 2.67061 42.4698 2.74548C40.768 3.32513 39.1308 4.07941 37.5843 4.99624Z" fill="#222221"/>
<path d="M57.3451 35.0449C51.3267 36.7845 46.1521 39.1474 41.5204 42.9747C46.8509 39.3603 52.93 36.9985 59.3026 36.0663C58.682 35.668 58.0268 35.3261 57.3451 35.0449Z" fill="#F5F5F5"/>
</svg>
