<svg width="24" height="24" viewBox="0 0 24 24" fill="none" xmlns="http://www.w3.org/2000/svg">
<path d="M15.7521 14.6947C16.3484 14.695 16.9202 14.932 17.3417 15.3538C17.7633 15.7755 18.0001 16.3474 18.0001 16.9437V17.8617C18.0005 18.4354 17.8215 18.9948 17.4881 19.4617C15.9421 21.6247 13.4171 22.6947 9.99708 22.6947C6.57508 22.6947 4.05208 21.6227 2.51008 19.4587C2.1782 18.9927 1.99993 18.4348 2.00008 17.8627V16.9427C2.00021 16.6474 2.05851 16.3549 2.17165 16.0821C2.2848 15.8093 2.45057 15.5615 2.6595 15.3527C2.86843 15.144 3.11643 14.9784 3.38935 14.8655C3.66226 14.7526 3.95473 14.6946 4.25008 14.6947H15.7521ZM20.0521 1.09872C20.2247 1.00011 20.4295 0.974111 20.6213 1.02643C20.8132 1.07875 20.9764 1.2051 21.0751 1.37772C22.1741 3.30139 22.7505 5.47922 22.7471 7.69472C22.7471 9.94872 22.1611 12.1187 21.0641 14.0307C21.0162 14.1182 20.9513 14.1953 20.8733 14.2574C20.7953 14.3195 20.7056 14.3654 20.6096 14.3925C20.5136 14.4195 20.4132 14.4272 20.3142 14.4149C20.2152 14.4027 20.1196 14.3708 20.0331 14.3212C19.9466 14.2716 19.8708 14.2052 19.8103 14.126C19.7497 14.0467 19.7056 13.9562 19.6804 13.8597C19.6553 13.7632 19.6496 13.6626 19.6638 13.5639C19.678 13.4651 19.7118 13.3702 19.7631 13.2847C20.7389 11.5836 21.2506 9.65587 21.2471 7.69472C21.2471 5.71171 20.7341 3.80472 19.7721 2.12172C19.6736 1.94893 19.6477 1.74408 19.7002 1.55223C19.7527 1.36038 19.8793 1.19725 20.0521 1.09872ZM9.99708 2.69872C11.3232 2.69872 12.5949 3.2255 13.5326 4.16318C14.4703 5.10086 14.9971 6.37263 14.9971 7.69871C14.9971 9.0248 14.4703 10.2966 13.5326 11.2342C12.5949 12.1719 11.3232 12.6987 9.99708 12.6987C8.67099 12.6987 7.39922 12.1719 6.46154 11.2342C5.52386 10.2966 4.99708 9.0248 4.99708 7.69871C4.99708 6.37263 5.52386 5.10086 6.46154 4.16318C7.39922 3.2255 8.67099 2.69872 9.99708 2.69872ZM16.5861 3.09472C16.7589 2.99619 16.9637 2.97034 17.1556 3.02285C17.3474 3.07536 17.5105 3.20193 17.6091 3.37472C18.3574 4.69135 18.7496 6.18029 18.7471 7.69472C18.7492 9.21226 18.3552 10.7041 17.6041 12.0227C17.5553 12.1083 17.4901 12.1835 17.4123 12.2439C17.3344 12.3044 17.2455 12.3489 17.1504 12.3749C17.0554 12.401 16.9561 12.4081 16.8584 12.3958C16.7606 12.3834 16.6662 12.352 16.5806 12.3032C16.495 12.2544 16.4198 12.1893 16.3593 12.1114C16.2989 12.0336 16.2544 11.9446 16.2284 11.8496C16.2023 11.7545 16.1952 11.6553 16.2075 11.5575C16.2198 11.4597 16.2513 11.3653 16.3001 11.2797C16.9228 10.1877 17.2492 8.95182 17.2471 7.69472C17.2495 6.44043 16.9248 5.20719 16.3051 4.11672C16.2069 3.94402 16.1812 3.73941 16.2337 3.5478C16.2862 3.3562 16.4136 3.19324 16.5861 3.09472Z" fill="white"/>
</svg>
