<svg width="62" height="38" viewBox="0 0 62 38" fill="none" xmlns="http://www.w3.org/2000/svg">
<path d="M61.8697 36.8546C61.9353 36.9264 61.9785 37.0159 61.9938 37.1119C62.0091 37.208 61.9959 37.3064 61.9559 37.3951C61.9159 37.4838 61.8508 37.5588 61.7686 37.6108C61.6864 37.6629 61.5908 37.6897 61.4935 37.688C56.8907 37.639 52.325 36.8576 47.968 35.373C47.9082 35.3552 47.853 35.3249 47.8061 35.2839C47.7592 35.243 47.7216 35.1924 47.6959 35.1357C35.9298 27.9822 23.6659 21.6738 11.7204 14.775C10.9564 16.1524 8.91922 15.9325 8.05109 14.775C7.82971 14.4854 7.66301 14.1579 7.55914 13.8085C7.52378 13.8793 7.46601 13.9363 7.39483 13.9709C7.32366 14.0054 7.24307 14.0155 7.16559 13.9995C5.59716 13.6927 4.90844 12.5584 4.71745 11.1462C4.69219 11.2095 4.65139 11.2653 4.59882 11.3086C4.54625 11.352 4.48361 11.3813 4.41669 11.394C4.34977 11.4067 4.28073 11.4023 4.21595 11.3813C4.15118 11.3602 4.09276 11.3232 4.04609 11.2735C2.82491 9.94818 1.03655 9.92502 0.301531 8.07879C-0.277227 6.59717 0.0526663 4.99981 0.654575 3.58185C1.17546 2.36646 1.9452 0.254002 3.49048 0.0224988C4.90843 -0.185854 6.91093 1.10477 8.12053 1.75877C8.14215 1.76813 8.16126 1.78243 8.17634 1.80052C8.19142 1.81862 8.20204 1.83999 8.20735 1.86294C9.44589 1.09319 10.8638 0.994799 11.7841 2.59796C12.0179 2.50564 12.2677 2.46041 12.5191 2.46485C13.2951 2.49467 14.045 2.75272 14.6751 3.20672C15.3051 3.66072 15.7872 4.29049 16.0611 5.01717C16.0859 5.07284 16.0939 5.13454 16.084 5.19468C16.0742 5.25482 16.0471 5.31078 16.0059 5.35567C15.9646 5.40057 15.9112 5.43243 15.8521 5.44736C15.793 5.46228 15.7309 5.4596 15.6733 5.43965C15.6135 5.40916 15.5649 5.36054 15.5344 5.30076C14.8399 3.98698 13.4798 2.88734 12.0098 3.56449C10.7481 4.14325 10.2388 5.87952 9.57322 7.03703C9.3938 7.35535 8.99446 7.03704 9.11021 6.75344C9.68897 5.54963 10.2214 3.4661 11.4831 2.70215C8.91922 0.265579 6.7431 4.15481 6.12383 6.30779C5.50456 8.46077 4.43385 12.3674 7.35658 13.2529C7.38703 13.2628 7.41618 13.2765 7.44339 13.2934C7.14244 11.6439 8.02215 9.76877 8.46779 8.25242C8.52567 8.04986 8.86714 8.09615 8.8382 8.31608C8.65878 9.55462 8.13211 10.7295 8.05109 11.9796C7.99071 12.3948 8.01715 12.818 8.12873 13.2225C8.2403 13.6269 8.43458 14.0038 8.69929 14.3294C8.84311 14.506 9.02448 14.6484 9.2302 14.7462C9.43593 14.844 9.66085 14.8947 9.88864 14.8947C10.1164 14.8947 10.3414 14.844 10.5471 14.7462C10.7528 14.6484 10.9342 14.506 11.078 14.3294C10.9044 14.2252 10.7423 14.1326 10.5687 14.0342C10.5161 14.0033 10.4751 13.956 10.4521 13.8995C10.4291 13.843 10.4253 13.7805 10.4414 13.7217C10.3927 13.657 10.37 13.5765 10.3777 13.496C10.5957 10.1975 12.041 7.10036 14.429 4.8146C14.4801 4.76866 14.5438 4.73893 14.6118 4.72919C14.6799 4.71945 14.7493 4.73013 14.8113 4.75989C14.8733 4.78964 14.925 4.83711 14.96 4.89631C14.995 4.95551 15.0116 5.02377 15.0077 5.09241C15.2219 5.20238 15.436 5.31234 15.656 5.43388C27.9082 11.8002 39.7149 19.1851 51.6431 26.1302C51.7399 26.1842 51.8124 26.2733 51.8456 26.3791C51.8875 26.4217 51.9163 26.4754 51.9286 26.5339C51.941 26.5923 51.9362 26.6531 51.9151 26.709C53.7555 27.8665 55.1908 29.7127 56.6898 31.2696C58.4203 33.2026 60.145 35.0257 61.8697 36.8546ZM57.7084 36.5131C58.5766 36.5884 59.4447 36.6462 60.3418 36.6752C59.5605 35.8649 58.7849 35.0373 58.0268 34.227C57.8049 34.5252 57.6606 34.8738 57.6071 35.2416C57.5535 35.6094 57.5923 35.9847 57.72 36.3337C57.7305 36.3936 57.7265 36.4551 57.7084 36.5131ZM56.9329 36.4321C56.7842 35.9722 56.7655 35.4802 56.8789 35.0104C56.9922 34.5406 57.2333 34.1112 57.5753 33.7698L55.949 32.0335C54.479 30.4709 52.7311 28.943 51.6604 27.062C51.4915 27.216 51.3568 27.4038 51.2651 27.6132C51.1734 27.8225 51.1267 28.0488 51.128 28.2774C51.1476 28.7486 51.3296 29.1984 51.6431 29.5507C51.6694 29.5909 51.6858 29.6369 51.6908 29.6847C51.6957 29.7326 51.6891 29.7809 51.6716 29.8257C51.654 29.8705 51.6259 29.9104 51.5898 29.9421C51.5536 29.9738 51.5103 29.9963 51.4636 30.0079C51.4482 30.0382 51.426 30.0647 51.3989 30.0853C51.3717 30.1058 51.3402 30.12 51.3068 30.1267C51.2734 30.1334 51.2389 30.1324 51.206 30.1238C51.173 30.1153 51.1424 30.0994 51.1164 30.0773C50.9992 29.9993 50.8661 29.9485 50.7267 29.9287C50.5873 29.9088 50.4453 29.9204 50.311 29.9626C50.1767 30.0048 50.0535 30.0765 49.9505 30.1725C49.8476 30.2684 49.7673 30.3862 49.7158 30.5172C49.3743 31.3275 50.0804 32.0104 50.5608 32.5544C50.6027 32.597 50.6315 32.6507 50.6438 32.7092C50.6561 32.7677 50.6514 32.8284 50.6302 32.8843C50.8444 33.0116 50.8039 33.3878 50.5145 33.3589C50.3455 33.3389 50.1742 33.3578 50.0136 33.4141C49.853 33.4704 49.7074 33.5627 49.588 33.6838C49.4685 33.805 49.3783 33.9519 49.3242 34.1132C49.2701 34.2745 49.2536 34.4461 49.2759 34.6148C49.2875 34.676 49.2875 34.7388 49.2759 34.8C51.7713 35.5834 54.335 36.1299 56.9329 36.4321ZM48.2515 34.3312C48.3447 34.3854 48.4147 34.4719 48.4483 34.5743C48.4432 34.1859 48.5647 33.8063 48.7944 33.4931C49.0241 33.1798 49.3496 32.9499 49.7216 32.838C48.9808 32.1551 48.5641 30.9223 49.1428 30.0484C49.3024 29.8184 49.5152 29.6304 49.7631 29.5004C50.011 29.3704 50.2867 29.3023 50.5666 29.3018C50.4189 28.9053 50.3792 28.4767 50.4514 28.0598C50.5236 27.6429 50.7051 27.2527 50.9775 26.9289C38.8873 19.9144 26.4787 13.2124 14.7531 5.60171C13.8187 6.77154 13.026 8.0479 12.3918 9.40414C11.8539 10.8008 11.4546 12.2469 11.1995 13.7217C24.0074 19.5671 36.2539 27.0331 48.2689 34.3312L48.2515 34.3312ZM4.63063 10.6832L4.63063 10.7295C4.47437 8.56495 5.33093 5.87373 5.92705 4.45578C6.35909 3.51813 7.02225 2.7056 7.85431 2.09444C6.39584 1.7414 4.96053 0.902208 3.54836 1.35943C2.13619 1.81664 1.50534 3.37351 1.07127 4.80304C0.452007 6.80554 1.01919 8.37975 2.80755 9.43309C3.48233 9.75151 4.10329 10.1733 4.648 10.6832L4.63063 10.6832Z" fill="#222221"/>
<path d="M60.3418 36.6751C59.4563 36.6461 58.6055 36.5882 57.7085 36.513C57.7227 36.454 57.7227 36.3925 57.7085 36.3336C57.5808 35.9846 57.542 35.6092 57.5955 35.2415C57.6491 34.8737 57.7933 34.5251 58.0152 34.2269C58.7849 35.0372 59.5605 35.8648 60.3418 36.6751Z" fill="#222221"/>
<path d="M57.5753 33.7699C57.2333 34.1113 56.9922 34.5407 56.8789 35.0105C56.7655 35.4803 56.7842 35.9723 56.9329 36.4322C54.3359 36.1394 51.7723 35.6026 49.276 34.829C49.2876 34.7678 49.2876 34.705 49.276 34.6438C49.2536 34.4751 49.2701 34.3035 49.3242 34.1422C49.3783 33.9809 49.4685 33.834 49.588 33.7128C49.7075 33.5917 49.853 33.4994 50.0136 33.4431C50.1742 33.3868 50.3455 33.3679 50.5145 33.3879C50.8039 33.4168 50.8444 33.0406 50.6303 32.9133C50.6514 32.8574 50.6561 32.7967 50.6438 32.7382C50.6315 32.6797 50.6027 32.626 50.5608 32.5834C50.0804 32.0394 49.3744 31.3565 49.7158 30.5462C49.7674 30.4152 49.8476 30.2974 49.9506 30.2014C50.0536 30.1055 50.1767 30.0338 50.311 29.9916C50.4453 29.9494 50.5874 29.9379 50.7267 29.9577C50.8661 29.9776 50.9992 30.0283 51.1164 30.1064C51.1424 30.1284 51.173 30.1443 51.206 30.1529C51.239 30.1614 51.2734 30.1624 51.3069 30.1557C51.3403 30.149 51.3717 30.1348 51.3989 30.1143C51.426 30.0937 51.4482 30.0672 51.4637 30.0369C51.5104 30.0253 51.5536 30.0028 51.5898 29.9711C51.626 29.9394 51.654 29.8994 51.6716 29.8547C51.6892 29.8099 51.6957 29.7615 51.6908 29.7137C51.6858 29.6659 51.6695 29.6199 51.6431 29.5797C51.3296 29.2274 51.1476 28.7776 51.128 28.3064C51.1267 28.0778 51.1734 27.8515 51.2651 27.6422C51.3568 27.4328 51.4915 27.245 51.6604 27.091C52.7311 28.972 54.479 30.4999 55.949 32.0625L57.5753 33.7699Z" fill="#E8CFBA"/>
<path d="M48.4657 34.5741C48.4321 34.4717 48.362 34.3853 48.2689 34.3311C36.2539 27.033 24.0074 19.567 11.1879 13.7273C11.443 12.2526 11.8423 10.8065 12.3802 9.40981C13.0144 8.05357 13.8071 6.7772 14.7415 5.60737C26.4671 13.2122 38.8757 19.9142 50.9775 26.9288C50.7091 27.2525 50.5309 27.6412 50.4607 28.0558C50.3906 28.4704 50.4311 28.8962 50.5781 29.2901C50.2982 29.2906 50.0226 29.3587 49.7746 29.4887C49.5267 29.6187 49.3139 29.8067 49.1544 30.0367C48.5756 30.9106 49.0097 32.1434 49.7331 32.8263C49.3603 32.9397 49.0347 33.1719 48.8059 33.4874C48.5771 33.8029 48.4576 34.1845 48.4657 34.5741ZM42.4408 29.4522C42.8228 29.6721 43.1874 29.1049 42.8922 28.8734C43.0717 28.9892 43.2511 29.0991 43.4363 29.2033C43.5184 29.2547 43.6176 29.2714 43.712 29.2497C43.8064 29.228 43.8884 29.1697 43.9398 29.0875C43.9912 29.0054 44.0079 28.9062 43.9862 28.8118C43.9645 28.7174 43.9062 28.6354 43.824 28.584C43.0254 28.0747 42.1399 27.658 41.2949 27.2181C41.2435 27.1867 41.1816 27.1769 41.123 27.191C41.0644 27.2051 41.0138 27.242 40.9823 27.2934C40.9509 27.3448 40.9411 27.4066 40.9552 27.4652C40.9693 27.5239 41.0062 27.5745 41.0576 27.6059C41.6363 28.0111 42.2151 28.4451 42.7939 28.8271C41.5785 28.2483 40.3978 27.6233 39.1593 27.1198C38.9509 27.033 38.8178 27.3455 38.9972 27.467C40.12 28.1905 41.3007 28.7866 42.4408 29.4522ZM19.7941 11.3891C20.1702 11.557 20.3728 10.9782 20.0834 10.7583C19.1179 10.1505 18.1035 9.62397 17.0507 9.18408C16.7903 9.06833 16.5646 9.39824 16.8135 9.56029C17.753 10.2538 18.7502 10.8656 19.7941 11.3891ZM19.522 9.57186C19.8346 9.61237 20.0024 9.10885 19.7072 8.9931C19.0764 8.70372 18.3935 8.55325 17.7626 8.23493C17.1597 7.90804 16.5796 7.54066 16.0263 7.13529C15.8411 7.00797 15.627 7.27998 15.7775 7.44204C16.6688 8.40856 18.1562 9.42138 19.522 9.57186Z" fill="#65B1D2"/>
<path d="M42.8749 28.8793C43.1701 29.105 42.8054 29.6722 42.4235 29.458C41.2659 28.7925 40.1084 28.1963 39.003 27.4787C38.8236 27.3571 38.9567 27.0446 39.1651 27.1314C40.4036 27.6349 41.5843 28.2889 42.7997 28.8388L42.8749 28.8793Z" fill="#222221"/>
<path d="M43.824 28.5899C43.9061 28.6413 43.9644 28.7232 43.9862 28.8177C44.0079 28.9121 43.9912 29.0113 43.9398 29.0934C43.8883 29.1755 43.8064 29.2339 43.712 29.2556C43.6175 29.2773 43.5184 29.2606 43.4362 29.2092C43.251 29.105 43.0716 28.995 42.8922 28.8793L42.817 28.833C42.2382 28.451 41.6594 28.0169 41.0807 27.6118C41.0293 27.5803 40.9925 27.5297 40.9783 27.4711C40.9642 27.4125 40.974 27.3507 41.0055 27.2993C41.0369 27.2478 41.0875 27.211 41.1461 27.1969C41.2047 27.1828 41.2666 27.1926 41.318 27.224C42.1398 27.6639 43.0253 28.0806 43.824 28.5899Z" fill="#222221"/>
<path d="M11.0895 14.4161C10.9457 14.5928 10.7644 14.7352 10.5586 14.833C10.3529 14.9308 10.128 14.9815 9.9002 14.9815C9.67242 14.9815 9.44749 14.9308 9.24176 14.833C9.03604 14.7352 8.85468 14.5928 8.71086 14.4161C8.44615 14.0906 8.25186 13.7137 8.14029 13.3092C8.02871 12.9048 8.00227 12.4816 8.06265 12.0664C8.14367 10.8163 8.67034 9.6414 8.84976 8.40286C8.87869 8.18294 8.53723 8.13663 8.47935 8.33919C8.01635 9.85553 7.154 11.7307 7.45495 13.3802C7.42775 13.3632 7.3986 13.3496 7.36814 13.3397C4.44542 12.431 5.5219 8.48389 6.13538 6.39458C6.74887 4.30526 8.93078 0.352348 11.4947 2.78891C10.233 3.5413 9.68895 5.62482 9.12177 6.84021C8.97708 7.14695 9.40537 7.41896 9.58478 7.1238C10.2504 5.93735 10.7423 4.23001 12.0213 3.65126C13.4914 2.95096 14.8515 4.0506 15.546 5.38753C15.5765 5.44731 15.6251 5.49594 15.6849 5.52644L15.6386 5.62482C15.4186 5.50328 15.2045 5.39332 14.9904 5.28336C14.9942 5.21471 14.9776 5.14647 14.9426 5.08727C14.9077 5.02807 14.8559 4.98058 14.7939 4.95083C14.7319 4.92108 14.6625 4.91039 14.5945 4.92013C14.5264 4.92987 14.4628 4.9596 14.4116 5.00555C12.0236 7.2913 10.5783 10.3885 10.3603 13.6869C10.3526 13.7674 10.3753 13.848 10.424 13.9126C10.4079 13.9715 10.4117 14.0339 10.4347 14.0904C10.4578 14.1469 10.4987 14.1943 10.5513 14.2252C10.7539 14.2194 10.9159 14.312 11.0895 14.4161Z" fill="#D8D8D8"/>
<path d="M20.0835 10.7816C20.3902 11.0016 20.1703 11.5803 19.7941 11.4125C18.7554 10.8807 17.764 10.2611 16.8309 9.56048C16.582 9.39843 16.8309 9.06852 17.0682 9.18427C18.1157 9.63246 19.1243 10.1668 20.0835 10.7816Z" fill="#222221"/>
<path d="M19.7246 8.97595C20.0198 9.10907 19.852 9.61258 19.5394 9.55471C18.1736 9.40423 16.6862 8.3972 15.7659 7.40753C15.6155 7.24547 15.8296 6.97346 16.0148 7.10079C16.568 7.50615 17.1481 7.87353 17.7511 8.20042C18.3935 8.5361 19.0764 8.68657 19.7246 8.97595Z" fill="#222221"/>
<path d="M4.67694 10.7295L4.67694 10.6832C4.13766 10.1835 3.52473 9.76963 2.85964 9.45622C1.08865 8.37974 0.544615 6.80552 1.12337 4.82617C1.55744 3.39664 2.16513 1.83401 3.60045 1.38258C5.03577 0.931146 6.44794 1.76455 7.9064 2.11759C7.07435 2.72875 6.41118 3.54127 5.97914 4.47891C5.37145 5.87372 4.51489 8.56495 4.67694 10.7295ZM3.27635 8.68069C3.4384 8.93535 3.91298 8.80802 3.79723 8.48392C3.43842 7.62695 3.3281 6.68628 3.47891 5.76955C3.48995 5.71633 3.4809 5.66091 3.45349 5.61398C3.42609 5.56704 3.38227 5.53191 3.33049 5.51537C3.27872 5.49883 3.22265 5.50206 3.17311 5.52441C3.12357 5.54677 3.08406 5.58666 3.06221 5.63643C2.87873 6.12954 2.80242 6.65609 2.83834 7.18101C2.87427 7.70592 3.02161 8.21717 3.27056 8.68069L3.27635 8.68069ZM2.01466 7.67366C2.05346 7.72642 2.10999 7.76341 2.17387 7.77783C2.23776 7.79226 2.3047 7.78315 2.36241 7.75219C2.42012 7.72122 2.46472 7.67047 2.48802 7.60926C2.51131 7.54806 2.51175 7.48051 2.48924 7.41901C2.29148 6.99207 2.1852 6.52849 2.17723 6.05804C2.16926 5.58759 2.25976 5.12067 2.44294 4.68727C2.51239 4.51365 2.24037 4.40368 2.14199 4.55415C1.84712 5.01637 1.67953 5.54825 1.65615 6.09601C1.63278 6.64378 1.75445 7.188 2.00887 7.67366L2.01466 7.67366Z" fill="#CFA198"/>
<path d="M3.79148 8.46654C3.90723 8.79065 3.43265 8.91797 3.27059 8.66332C3.02071 8.20022 2.87236 7.68919 2.83544 7.16427C2.79851 6.63935 2.87385 6.11257 3.05645 5.61905C3.07831 5.56929 3.11782 5.52939 3.16736 5.50704C3.2169 5.48468 3.27297 5.48146 3.32474 5.49799C3.37652 5.51453 3.42033 5.54967 3.44774 5.5966C3.47514 5.64354 3.4842 5.69895 3.47316 5.75217C3.32235 6.6689 3.43266 7.60957 3.79148 8.46654Z" fill="#222221"/>
<path d="M2.48342 7.41889C2.50593 7.48039 2.5055 7.54794 2.4822 7.60915C2.4589 7.67036 2.4143 7.72111 2.35659 7.75207C2.29888 7.78304 2.23194 7.79215 2.16806 7.77772C2.10417 7.76329 2.04764 7.72631 2.00884 7.67355C1.75357 7.18839 1.63091 6.64444 1.65327 6.09668C1.67563 5.54892 1.84221 5.01678 2.13617 4.55404C2.23456 4.40356 2.50657 4.51353 2.43712 4.68716C2.25394 5.12056 2.16344 5.58748 2.17141 6.05793C2.17939 6.52838 2.28566 6.99195 2.48342 7.41889Z" fill="#222221"/>
</svg>
