<svg width="157" height="43" viewBox="0 0 157 43" fill="none" xmlns="http://www.w3.org/2000/svg">
<path d="M13.451 6.04288H13.3988L13.3469 6.04831C11.1361 6.27963 8.66643 6.64407 6.52733 7.39402C4.4118 8.13572 2.43891 9.31776 1.46961 11.3077C0.923593 12.3481 0.848293 13.5307 1.27223 14.6237L1.30038 14.6963L1.33943 14.7636C2.00508 15.9118 3.04049 16.8562 4.29829 17.5144L9.33667 20.6884C8.36746 20.9025 7.40266 21.1785 6.52137 21.5414C4.86324 22.2242 3.27612 23.3092 2.72139 25.0939L2.7098 25.1312L2.70116 25.1693C2.46993 26.1875 2.56258 27.235 2.96299 28.2071C3.36201 29.1758 4.04642 30.0225 4.92656 30.6844L4.9265 30.6845L4.93777 30.6927C5.71815 31.2627 6.55198 31.7785 7.43028 32.2363C6.47133 32.6988 5.65976 33.3807 5.11255 34.2307L5.10401 34.244L5.0959 34.2575C4.56094 35.1491 4.3445 36.1667 4.49719 37.1817C4.64917 38.1919 5.15358 39.1151 5.90869 39.8529C7.04909 40.9863 8.62247 41.5131 10.1858 41.7659C11.7605 42.0206 13.4607 42.0173 14.9634 41.984H14.9635C55.4018 41.0809 95.8339 40.8761 136.26 41.3696C137.992 41.3918 139.9 41.3848 141.697 41.1111C143.491 40.8379 145.268 40.2864 146.683 39.1502L146.693 39.1418L146.703 39.1331C147.846 38.1637 148.607 36.8902 148.814 35.484C149.021 34.0733 148.648 32.6655 147.794 31.4781C147.667 31.3001 147.516 31.1156 147.39 30.9605C147.357 30.9197 147.325 30.8809 147.296 30.8448C147.139 30.6494 147.025 30.4986 146.948 30.3643C146.877 30.2417 146.865 30.1813 146.863 30.1663C146.864 30.1647 146.865 30.1626 146.866 30.1598C146.868 30.1564 146.87 30.1517 146.873 30.1459C146.877 30.1399 146.881 30.1325 146.887 30.1239C146.942 30.0415 147.113 29.9125 147.752 29.7847C147.894 29.7563 148.043 29.7304 148.207 29.7022C148.366 29.6749 148.541 29.6451 148.714 29.6114C149.058 29.545 149.449 29.4543 149.824 29.2998C151.204 28.7363 151.804 27.5694 151.848 26.3731C151.891 25.2381 151.449 24.0663 150.797 23.1775C150.514 22.7931 150.202 22.4175 149.911 22.0684L149.873 22.0224C149.564 21.6508 149.28 21.307 149.031 20.9622C148.529 20.2656 148.272 19.6961 148.269 19.1513C148.291 18.2572 148.993 17.4605 150.366 16.4299C150.663 16.2072 150.972 15.9867 151.293 15.7571L151.386 15.6907C151.737 15.4401 152.101 15.1788 152.454 14.9084C153.152 14.3735 153.86 13.7654 154.403 13.0487C155.462 11.6766 156.029 10.3503 155.999 9.07466C155.967 7.76062 155.31 6.70227 154.351 5.88509C153.411 5.08383 152.14 4.47368 150.728 3.99563C149.304 3.51394 147.674 3.14563 145.964 2.86061C140.698 1.98282 134.379 1.85734 130.591 1.78213C129.499 1.76043 128.616 1.74291 128.031 1.71272C89.8199 -0.282004 51.4861 2.14895 13.5294 6.04288H13.451Z" fill="#CD3F97" stroke="#AA1070" stroke-width="2"/>
</svg>
