<svg width="185" height="101" viewBox="0 0 185 101" fill="none" xmlns="http://www.w3.org/2000/svg">
<path d="M72.6852 100.968C76.5116 100.765 80.2698 99.8725 83.7785 98.334C86.8551 97.0061 89.7621 95.3161 92.4378 93.3C94.4191 94.9 96.6697 96.1349 99.0844 96.9469C101.746 97.9221 104.551 98.4488 107.385 98.5054C112.859 98.5414 118.206 96.8626 122.675 93.7052C125.208 92.0679 127.32 89.8574 128.838 87.253C128.868 87.2125 128.885 87.1633 128.885 87.1127C128.885 87.0622 128.868 87.0129 128.838 86.9725C132.315 87.8652 135.857 88.4801 139.432 88.8115C147.728 89.5987 156.099 88.8054 164.099 86.4738C171.183 84.4009 178.438 80.7696 182.307 74.1927C184.121 71.0072 185.031 67.3875 184.937 63.7238C184.844 60.0601 183.751 56.4914 181.777 53.4022C179.791 50.4913 177.056 48.1698 173.86 46.683C170.663 45.1962 167.124 44.5993 163.616 44.9551C162.932 45.0428 162.258 45.1941 161.603 45.4071C162.139 41.9667 161.914 38.4507 160.944 35.1065C159.973 31.7622 158.281 28.6711 155.986 26.0505C153.496 23.2947 150.374 21.184 146.887 19.8999C143.4 18.6159 139.653 18.1968 135.968 18.6787C133.86 18.9313 131.794 19.4552 129.821 20.2372C128.228 20.8509 126.735 21.6964 125.39 22.7464C124.16 17.8379 121.434 13.4321 117.589 10.1381C112.694 6.06217 106.904 3.19982 100.691 1.7845C88.5372 -1.33251 74.7135 -0.818211 64.3536 6.97432C59.3753 10.5772 55.7278 15.7219 53.978 21.6087C53.959 21.6333 53.9487 21.6634 53.9487 21.6944C53.9487 21.7254 53.959 21.7556 53.978 21.7801C43.4152 21.2502 32.5716 22.2945 22.867 26.705C14.0516 30.726 6.28167 37.5366 2.49031 46.7318C0.538361 51.2956 -0.285747 56.2615 0.0875469 61.2104C0.504347 65.7349 2.03165 70.0869 4.53421 73.881C9.67196 81.2785 17.1686 86.7176 25.8002 89.3102C34.5219 92.1155 43.7429 92.5208 52.8702 92.2714C53.4773 93.2334 54.218 94.1045 55.0702 94.8585C56.06 95.7961 57.1421 96.6315 58.2999 97.3521C59.4467 98.0665 60.6524 98.6817 61.904 99.1912C65.3294 100.546 69.0057 101.152 72.6852 100.968Z" fill="#AAAAAA"/>
<path d="M180.997 72.0732C177.876 78.6345 171.105 82.3749 164.489 84.5412C157.016 86.9219 149.162 87.8788 141.335 87.3621C133.513 86.8885 125.842 84.9979 118.696 81.7827L116.028 80.5047C115.514 80.2553 114.812 81.1748 115.358 81.471C119.393 83.6073 123.666 85.2604 128.089 86.3958C128.02 86.4108 127.955 86.4429 127.902 86.4893C126.245 88.4011 124.429 90.1686 122.472 91.7727C120.462 93.3001 118.232 94.514 115.857 95.3728C110.833 97.1702 105.365 97.3122 100.255 95.7781C97.676 94.9729 95.2155 93.8304 92.937 92.3805C92.9934 92.3545 93.0434 92.3163 93.0833 92.2687C93.1232 92.2212 93.152 92.1654 93.1678 92.1053C93.1836 92.0453 93.1859 91.9825 93.1745 91.9215C93.1631 91.8605 93.1384 91.8028 93.1021 91.7524C93.0657 91.7021 93.0187 91.6604 92.9644 91.6303C92.91 91.6003 92.8497 91.5826 92.7877 91.5786C92.7257 91.5746 92.6635 91.5843 92.6057 91.6071C92.5479 91.6299 92.4959 91.6651 92.4534 91.7103L92.1101 91.9597C91.9229 91.835 91.6576 92.0844 91.7825 92.2714C87.1947 95.7768 81.8529 98.1673 76.1801 99.2535C70.7128 100.184 65.091 99.2512 60.2189 96.6041C58.9769 95.8998 57.8109 95.0694 56.7396 94.126C55.9056 93.3373 55.1139 92.5049 54.3681 91.6324C56.2091 91.6324 58.0346 91.4922 59.8601 91.3986C61.2643 91.3986 62.6841 91.2272 64.0883 91.1181C64.65 91.1181 64.884 90.0427 64.2131 90.0739C53.2915 90.4947 42.3699 91.2272 31.6355 88.7336C22.8728 86.9384 14.9229 82.3694 8.96527 75.7045C6.21542 72.5153 4.23035 68.7415 3.1612 64.6703C2.0232 60.0096 2.11459 55.1338 3.42644 50.519C4.80403 45.975 7.0758 41.7514 10.1086 38.0957C13.1414 34.44 16.8742 31.4258 21.0883 29.2298C30.3405 24.1179 41.0281 22.4659 51.4972 22.6217C52.8234 22.6217 54.1496 22.6217 55.4758 22.7776C55.8191 22.7776 56.0219 22.2321 55.6163 22.2009H54.7893C54.8513 22.1649 54.9004 22.1104 54.9298 22.0451C58.4091 11.5096 68.2854 4.4028 78.9261 2.37674C85.2057 1.27379 91.6439 1.45404 97.8518 2.90663C103.811 4.0454 109.469 6.40697 114.468 9.84199C117.111 11.6592 119.351 13.9998 121.05 16.7184C122.749 19.437 123.871 22.4756 124.345 25.6452C124.345 26.2842 125.437 26.0349 125.374 25.4582C125.312 24.8816 125.218 24.3049 125.109 23.7439C126.388 23.027 127.605 22.1854 128.978 21.6087C130.611 20.8895 132.324 20.3663 134.08 20.0502C137.64 19.4105 141.301 19.6133 144.768 20.6424C148.091 21.7012 151.114 23.5357 153.586 25.994C156.057 28.4522 157.907 31.4634 158.982 34.7781C160.252 38.4882 160.505 42.4702 159.715 46.311C159.606 46.9033 160.495 46.8877 160.589 46.311C160.645 46.0907 160.687 45.8668 160.714 45.6409C163.935 45.2769 167.198 45.6119 170.278 46.6227C173.485 47.7405 176.338 49.6872 178.547 52.2645C180.775 55.0043 182.186 58.3147 182.619 61.8176C183.052 65.3204 182.49 68.8743 180.997 72.0732Z" fill="white"/>
<g style="mix-blend-mode:multiply">
<path d="M178.547 52.3269C176.447 49.8791 173.764 47.998 170.746 46.8565C172.694 49.1343 174.003 51.8879 174.537 54.8361C177.08 68.5509 164.396 76.8266 152.694 79.2267C139.853 81.8606 124.079 80.3644 113.267 72.3693C111.37 75.3745 108.357 77.5047 104.888 78.2916C102.384 78.7218 99.8109 78.5083 97.4117 77.6712C95.0124 76.8342 92.8659 75.4012 91.174 73.507C83.1232 82.6554 63.4174 78.0111 65.1337 65.0599C57.96 68.3803 49.9957 69.6171 42.1514 68.6289C34.5089 67.6073 27.2309 64.74 20.9479 60.2753C15.8771 56.7063 10.4787 51.5788 10.5567 44.924C10.5567 40.0303 13.4275 35.4794 16.9225 31.8793C10.4094 36.3824 5.64433 42.9855 3.42644 50.5814C2.11459 55.1962 2.0232 60.072 3.1612 64.7326C4.23035 68.8038 6.21542 72.5777 8.96527 75.7668C14.9003 82.4231 22.8209 86.9965 31.5575 88.8115C42.2607 91.3051 53.2603 90.5726 64.1351 90.1518C64.806 90.1518 64.572 91.1649 64.0103 91.196C62.6061 91.3051 61.1863 91.4142 59.7821 91.4766C57.9566 91.5701 56.1311 91.648 54.2901 91.7103C55.0633 92.5582 55.881 93.3646 56.7396 94.126C57.8109 95.0694 58.9769 95.8998 60.2189 96.6041C65.0869 99.214 70.6899 100.119 76.1333 99.1756C81.8061 98.0893 87.1479 95.6989 91.7357 92.1935C91.6108 92.0065 91.8761 91.7571 92.0633 91.8818L92.4066 91.6324C92.4491 91.5872 92.5011 91.5519 92.5589 91.5292C92.6167 91.5064 92.6789 91.4967 92.7409 91.5007C92.8029 91.5047 92.8632 91.5224 92.9175 91.5524C92.9719 91.5825 93.0189 91.6242 93.0553 91.6745C93.0916 91.7248 93.1163 91.7826 93.1277 91.8436C93.1391 91.9046 93.1368 91.9674 93.121 92.0274C93.1052 92.0874 93.0764 92.1432 93.0365 92.1908C92.9966 92.2384 92.9466 92.2766 92.8902 92.3026C95.1687 93.7525 97.6292 94.8949 100.208 95.7001C105.318 97.2343 110.786 97.0923 115.81 95.2949C118.185 94.436 120.415 93.2222 122.425 91.6948C124.382 90.0907 126.199 88.3232 127.855 86.4114C127.909 86.365 127.973 86.3329 128.042 86.3179C123.619 85.1825 119.346 83.5294 115.311 81.393C114.765 81.0969 115.467 80.1774 115.982 80.4268L118.665 81.6892C125.811 84.9044 133.482 86.795 141.304 87.2686C149.131 87.7853 156.985 86.8284 164.458 84.4477C171.074 82.297 177.876 78.5565 180.965 71.9796C182.431 68.8032 182.982 65.2813 182.554 61.8097C182.127 58.3381 180.739 55.0542 178.547 52.3269Z" fill="#EDEDED"/>
</g>
</svg>
