<svg width="177" height="106" viewBox="0 0 177 106" fill="none" xmlns="http://www.w3.org/2000/svg">
<path d="M174.798 39.5091C172.017 33.0042 167.77 27.3933 162.461 23.2124C151.979 14.5709 138.967 10.5051 125.928 11.7972C124.36 11.9724 117.431 12.423 115.886 12.7735C111.553 9.82871 106.991 7.31543 102.254 5.26352C93.8806 1.66251 84.9549 -0.122509 75.9672 0.00652807C67.0055 0.0813596 58.1581 2.23062 49.9987 6.31493C42.3921 10.2042 35.6933 15.9583 30.4144 23.1373C27.57 27.0534 25.2023 31.3622 23.3713 35.9543C22.4558 38.242 21.6964 40.6017 21.0993 43.0137C20.804 44.1652 20.5541 45.2918 20.3269 46.4683C12.8067 45.5171 5.69538 51.1996 2.31015 58.3591C-1.66579 66.7954 -0.166251 76.9338 4.19592 84.8193C9.08737 92.8839 16.3598 98.8362 24.7799 101.667C33.6517 104.951 43.0254 106.27 52.3615 105.547C60.2501 105.067 68.0048 103.094 75.2857 99.7141C80.8906 102.179 86.7775 103.78 92.7797 104.47C99.0956 105.342 105.477 105.476 111.819 104.871C124.583 103.672 136.972 99.5084 148.17 92.6547C159.53 85.6204 170.89 75.557 175.434 61.5133C177.723 54.3484 177.496 46.499 174.798 39.5091Z" fill="#AAAAAA"/>
<path d="M173.503 56.9823C170.935 71.0009 160.371 81.2396 149.829 88.4742C139.431 95.5128 127.831 100.122 115.749 102.017C103.553 103.941 91.13 103.149 79.2161 99.6891L76.6715 98.9631C78.5805 97.9723 80.432 96.852 82.2151 95.6087C82.3507 95.5356 82.4544 95.4062 82.5034 95.249C82.5524 95.0917 82.5427 94.9194 82.4764 94.77C82.4101 94.6207 82.2927 94.5064 82.15 94.4524C82.0072 94.3984 81.8509 94.4091 81.7153 94.4822C73.6246 98.2818 65.0894 100.81 56.3602 101.992C47.6833 103.087 38.898 102.425 30.4371 100.04C22.3531 98.0602 14.9933 93.4562 9.30783 86.822C4.26407 80.4134 1.21964 71.3764 3.12809 62.9402C4.09755 58.7854 6.25226 55.0834 9.2749 52.3794C12.2975 49.6753 16.0283 48.1122 19.9179 47.9202C19.7964 48.748 19.7356 49.5851 19.7361 50.4236C19.7361 51.9506 21.7809 51.475 22.0081 50.2984C22.4625 48.1455 22.7806 45.9426 23.2804 43.8148C23.7554 41.8026 24.3551 39.8287 25.0753 37.9069C26.5084 34.0206 28.3621 30.3391 30.5961 26.9423C35.2172 19.8867 41.2699 14.1177 48.272 10.0949C63.6759 1.23315 81.9652 0.757527 98.2552 6.46512C107.643 9.72841 116.495 14.6305 124.474 20.9844C124.973 21.3599 125.746 20.4838 125.223 20.0332C123.201 18.3059 121.134 16.6787 119.021 15.0265C130.949 13.0989 145.626 14.5258 156.486 22.8119C161.73 26.4419 166.276 31.1708 169.867 36.7304C173.465 42.6844 174.772 49.9676 173.503 56.9823Z" fill="white"/>
<g style="mix-blend-mode:multiply">
<path d="M170.072 36.8055C167.196 32.1968 163.576 28.2089 159.394 25.0398C162.996 32.6727 164.18 41.4136 162.756 49.8728C160.257 64.8928 150.919 75.607 138.469 81.615C126.527 87.4677 113.346 89.5562 100.391 87.6481C90.8031 86.096 78.4437 82.6414 74.7177 71.6268C68.7414 76.6276 61.8039 80.0517 54.4386 81.6357C47.0732 83.2197 39.4763 82.9215 32.2319 80.7639C20.8721 77.3344 6.71778 65.3184 9.71677 52.276C6.55343 55.0152 4.29443 58.8236 3.28714 63.1154C1.3787 71.5517 4.42313 80.6387 9.46689 86.9972C15.1524 93.6314 22.5122 98.2354 30.5961 100.215C39.057 102.6 47.8424 103.262 56.5192 102.167C65.2485 100.985 73.7836 98.457 81.8743 94.6574C82.0099 94.5844 82.1663 94.5737 82.309 94.6276C82.4517 94.6816 82.5691 94.7959 82.6354 94.9453C82.7017 95.0947 82.7114 95.2669 82.6624 95.4242C82.6134 95.5815 82.5098 95.7109 82.3742 95.7839C80.5763 97.029 78.7096 98.1494 76.7851 99.1383L79.3298 99.8643C91.2437 103.324 103.666 104.116 115.863 102.192C127.945 100.298 139.544 95.6881 149.942 88.6494C160.484 81.4148 171.049 71.1261 173.616 57.1575C174.27 53.6751 174.294 50.0846 173.686 46.5921C173.078 43.0995 171.85 39.7737 170.072 36.8055Z" fill="#EDEDED"/>
</g>
</svg>
