<svg width="62" height="55" viewBox="0 0 62 55" fill="none" xmlns="http://www.w3.org/2000/svg">
<path d="M39.0661 1.71404C40.977 2.68055 42.7652 3.87266 44.3924 5.26487L45.0485 5.81293C46.5959 5.70417 48.1471 5.96125 49.5767 6.56338C51.0062 7.16551 52.2739 8.09577 53.2772 9.27885C51.3319 3.04946 45.558 -0.393303 39.0661 1.71404ZM43.5664 2.6635C43.2036 2.6635 43.1418 2.07684 43.5046 2.03053C44.7762 1.87316 46.0584 2.22562 47.0709 3.01086C47.2253 3.13437 47.1327 3.47402 46.9088 3.37367C45.8628 2.88693 44.7199 2.6441 43.5664 2.6635Z" fill="#8CC5DF"/>
<path d="M50.3207 10.7146C51.7893 12.2713 53.0103 14.0442 53.941 15.9713C55.1941 15.8096 56.4677 15.9675 57.6433 16.4304C58.8189 16.8934 59.8582 17.6463 60.6645 18.619C60.5002 17.7173 60.201 16.8455 59.7768 16.0331C58.8566 14.3502 57.4824 12.9594 55.8107 12.0191C54.1389 11.0789 52.2368 10.6269 50.3207 10.7146ZM53.007 12.7679C52.5593 12.7679 52.5979 12.1194 53.007 12.0886C53.5961 12.0476 54.1871 12.134 54.7399 12.3418C55.2927 12.5496 55.7942 12.8739 56.2105 13.2928C56.2442 13.3346 56.2623 13.3869 56.2616 13.4407C56.261 13.4944 56.2417 13.5463 56.207 13.5873C56.1723 13.6284 56.1244 13.6561 56.0716 13.6658C56.0187 13.6754 55.9641 13.6663 55.9172 13.6401C55.0659 13.0446 54.0455 12.7387 53.007 12.7679Z" fill="#8CC5DF"/>
<path d="M46.1524 6.71615C47.3102 7.71964 48.4681 8.79261 49.6106 9.95049C50.9059 9.75221 52.2264 9.78882 53.5088 10.0586C53.5123 10.0252 53.5123 9.99156 53.5088 9.95821C53.4737 9.98279 53.4319 9.99597 53.3891 9.99597C53.3463 9.99597 53.3045 9.98279 53.2695 9.95821C50.9383 8.08244 48.9313 7.02491 46.1524 6.71615Z" fill="#B2D7E8"/>
<path d="M49.3018 31.8189C49.3018 31.8884 49.2401 31.9502 49.2092 32.0274C47.3679 35.9243 45.2041 39.6605 42.7405 43.197L42.4086 43.6602C50.5137 42.0855 55.8246 34.9838 59.0049 27.7895C60.1731 25.3836 60.7826 22.7449 60.788 20.0703C60.788 20.0703 60.7417 20.0703 60.7262 20.0086C59.8379 18.7044 58.5392 17.7344 57.0365 17.2528C57.8084 18.9356 56.5888 22.3552 56.1102 23.6675C54.8819 26.9958 52.6308 29.8494 49.6801 31.8189C49.6234 31.8546 49.5579 31.8735 49.491 31.8735C49.424 31.8735 49.3585 31.8546 49.3018 31.8189Z" fill="#B2D7E8"/>
<path d="M23.7822 21.2205C23.501 21.2679 23.236 21.3844 23.011 21.5596C22.786 21.7347 22.608 21.963 22.4931 22.224C22.3666 22.5034 22.3262 22.8141 22.3771 23.1166C22.428 23.4191 22.5678 23.6995 22.7787 23.9222C23.0134 24.1439 23.292 24.3141 23.5964 24.4217C23.9008 24.5294 24.2244 24.5722 24.5464 24.5475C24.9116 24.5183 25.2664 24.4117 25.5872 24.2347C25.908 24.0576 26.1874 23.8143 26.4067 23.5208L26.0748 23.2275C25.3569 22.5791 24.6004 21.8998 23.8439 21.1896L23.7822 21.2205Z" fill="#B2D7E8"/>
<path d="M17.7075 33.6405C17.4464 33.885 17.2251 34.1688 17.0516 34.4817C17.0053 34.6129 16.959 34.5743 17.0516 34.7209C17.1894 34.8346 17.3427 34.9282 17.5069 34.9987L18.2169 35.4232C18.5719 34.9061 18.9037 34.3505 19.2819 33.8334C18.896 33.6173 18.5101 33.3935 18.078 33.1311C17.9622 33.3009 17.831 33.463 17.7075 33.6405Z" fill="#B2D7E8"/>
<path d="M10.1192 21.2283C4.65397 24.5475 -0.255433 28.8471 2.73962 32.8071C5.85699 36.7757 9.56405 40.2433 13.7318 43.089L14.5037 42.0083C14.4317 41.9482 14.3821 41.8654 14.3629 41.7736C14.3437 41.6817 14.3562 41.586 14.3981 41.5021C14.4401 41.4181 14.5092 41.3508 14.5942 41.311C14.6792 41.2712 14.7751 41.2612 14.8665 41.2827C16.1342 41.5941 17.4584 41.5941 18.7261 41.2827C18.793 41.2701 18.8622 41.2839 18.9191 41.3213L18.6566 39.9936C17.6045 40.2287 16.5171 40.2602 15.4531 40.0863C15.0981 40.0322 15.1984 39.4379 15.5612 39.461C16.7106 39.5843 17.87 39.5843 19.0194 39.461C19.0624 39.4496 19.1076 39.4496 19.1506 39.461L18.5022 38.1179C15.7465 39.1368 12.6433 38.2414 9.6097 35.9488C7.81885 34.5979 5.7501 32.6064 5.62659 30.2134C5.50309 27.8205 7.6799 25.7208 9.31637 24.1693C9.37668 24.1091 9.45556 24.071 9.54023 24.0612C9.44378 23.6284 9.47898 23.1766 9.64129 22.764C9.80361 22.3513 10.0856 21.9966 10.4511 21.7455L10.1192 21.2283Z" fill="#65B1D2"/>
<path d="M9.75637 24.8716C8.04271 26.701 6.25186 28.7312 6.97747 31.5487C7.45605 33.3936 10.1192 35.2462 11.609 36.103C13.6005 37.2532 15.8314 38.2026 18.1085 37.423C19.4685 36.8214 20.7022 35.9675 21.7443 34.9066C21.0752 34.7192 20.4282 34.4604 19.8145 34.1346C19.502 34.8506 19.1056 35.5269 18.6335 36.1493C18.5811 36.232 18.4981 36.2906 18.4026 36.3123C18.3071 36.334 18.207 36.317 18.124 36.2651C17.63 35.9795 17.1128 35.7171 16.6419 35.4083C16.364 35.2153 16.1093 34.9915 16.1402 34.6364C16.171 34.2813 16.5416 33.8645 16.7731 33.5943C17.0047 33.3241 17.2131 33.0308 17.4293 32.7529C14.2335 30.6224 10.7676 27.4653 9.75637 24.8716Z" fill="#B2D7E8"/>
<path d="M19.1661 26.2842C18.1085 25.3811 10.675 18.565 10.7599 24.0379C10.7599 26.2996 14.2181 28.7466 15.8854 30.0975C17.5528 31.4483 20.1155 33.7795 22.3541 33.9571C22.4342 33.962 22.5119 33.9863 22.5805 34.028C22.6491 34.0697 22.7065 34.1275 22.7478 34.1964C22.7413 34.1407 22.7519 34.0843 22.7781 34.0347C22.8042 33.9851 22.8448 33.9446 22.8944 33.9185C27.2558 31.6027 20.7562 27.6351 19.1661 26.2842Z" fill="#65B1D2"/>
<path d="M10.1192 21.2282L10.428 21.7454C11.0193 21.3627 11.6804 21.1004 12.3732 20.9735C14.1641 20.5875 15.3451 21.7994 16.6728 22.8801C18.9886 24.7713 21.3043 26.7397 23.512 28.7699C26.0594 31.0856 26.9471 33.1853 23.0952 34.4589C23.0473 34.4781 22.9942 34.4801 22.945 34.4646C22.8957 34.4491 22.8534 34.4171 22.825 34.374C22.8483 34.4986 22.8228 34.6273 22.7539 34.7336C22.6849 34.84 22.5777 34.9157 22.4545 34.9452C21.4837 36.394 20.0981 37.5159 18.4791 38.1641L19.1275 39.5382C19.1603 39.559 19.1863 39.5888 19.2024 39.6242C19.2186 39.6595 19.2241 39.6987 19.2184 39.7371C19.2127 39.7755 19.1959 39.8114 19.1702 39.8405C19.1445 39.8696 19.1109 39.8906 19.0735 39.901L18.6335 40.009L18.8651 41.2981C18.9085 41.3222 18.9447 41.3574 18.9699 41.4002C18.9951 41.4429 19.0084 41.4916 19.0084 41.5413C19.0084 41.5909 18.9951 41.6397 18.9699 41.6824C18.9447 41.7252 18.9085 41.7604 18.8651 41.7844C17.5047 42.3276 16.0065 42.4222 14.5886 42.0546C14.545 42.0428 14.5034 42.0246 14.4651 42.0006L13.6932 43.0813C15.8005 44.5865 17.9928 45.9605 20.1928 47.2651C20.231 46.9995 20.3036 46.74 20.4089 46.4931C21.6671 43.5213 25.5036 40.2715 27.7035 38.002C30.3587 35.2273 33.2545 32.6933 36.3568 30.4295C32.9306 28.6807 29.7467 26.4932 26.8853 23.9222C26.1134 25.8289 23.0875 25.8752 21.8601 24.3854C21.5613 24.0121 21.3732 23.5624 21.3172 23.0875C21.2613 22.6127 21.3397 22.1316 21.5436 21.6991C21.8153 21.0667 22.3258 20.5673 22.964 20.3096C21.7031 19.0937 20.5868 17.7365 19.637 16.2648C17.6995 17.2065 13.7858 18.9896 10.1192 21.2282Z" fill="#65B1D2"/>
<path d="M22.5316 45.7135C22.2383 46.0917 21.9373 46.4854 21.6516 46.8405C22.0107 47.849 22.7467 48.679 23.705 49.1562C24.7632 49.8713 25.8611 50.5259 26.9933 51.1169C27.881 51.6573 29.9421 53.3323 30.9456 53.5176C33.1533 53.919 35.2452 50.6074 36.5188 49.1562C38.6878 46.6724 40.6963 44.0528 42.5321 41.3135C43.8675 39.322 45.118 37.2764 46.2604 35.1382C47.5032 32.8842 49.6337 29.7888 49.9502 27.0021C47.0799 29.1633 43.8115 30.7372 40.3321 31.6337C40.3134 31.6904 40.2831 31.7426 40.2432 31.787C40.2032 31.8314 40.1545 31.8671 40.1001 31.8917C40.0457 31.9164 39.9868 31.9295 39.9271 31.9303C39.8674 31.931 39.8082 31.9194 39.7532 31.8961C38.8191 31.5565 37.916 31.1242 37.0206 30.7382C33.3076 34.2582 29.5175 37.6855 26.1056 41.4911C25.0404 42.6953 23.1415 44.2931 22.5316 45.7135ZM32.4354 49.9359C32.3862 49.9799 32.3216 50.0026 32.2558 49.999C32.1899 49.9953 32.1282 49.9657 32.0841 49.9166C32.0401 49.8674 32.0174 49.8028 32.0211 49.737C32.0247 49.6711 32.0543 49.6094 32.1034 49.5654C32.8039 48.8322 33.4611 48.059 34.0718 47.2496C34.342 46.8945 34.9287 47.2496 34.6739 47.6278C34.0653 48.5284 33.3084 49.3192 32.4354 49.9667L32.4354 49.9359ZM32.2347 51.912C32.0031 52.0586 31.7406 51.6804 31.9645 51.5183C32.9959 50.7333 33.8463 49.7355 34.4578 48.5927C34.6739 48.2068 35.2297 48.5927 35.0367 48.9633C34.3782 50.1836 33.4123 51.2107 32.2347 51.9429L32.2347 51.912Z" fill="#65B1D2"/>
<path d="M24.1064 4.6242C21.6362 5.99821 19.3591 7.25644 19.1738 10.6375C19.0349 13.0999 20.4012 15.269 21.8678 17.1293C26.6958 23.1405 32.9172 27.8834 39.9925 30.9467C43.5334 29.8859 46.8055 28.0775 49.5875 25.6436C51.1313 24.2696 52.9067 22.5096 53.4007 20.4254C54.0183 17.8858 52.5671 15.8325 51.1776 14.0107C47.0092 8.54555 40.1006 1.20459 32.6515 1.59055C29.5716 1.71406 26.7695 3.14211 24.1064 4.6242ZM20.625 9.76518C20.6156 9.18005 20.7352 8.60002 20.9753 8.06636C21.2155 7.53269 21.5703 7.0585 22.0145 6.67751C22.0687 6.62939 22.1399 6.60481 22.2123 6.60915C22.2846 6.61349 22.3523 6.64641 22.4004 6.70066C22.4486 6.75491 22.4731 6.82605 22.4688 6.89844C22.4645 6.97082 22.4315 7.03851 22.3773 7.08662C22.0263 7.43747 21.7496 7.85552 21.564 8.31577C21.3783 8.77601 21.2873 9.26898 21.2966 9.76518C21.2844 9.84549 21.2438 9.91876 21.1822 9.97171C21.1206 10.0247 21.042 10.0538 20.9608 10.0538C20.8796 10.0538 20.801 10.0247 20.7394 9.97171C20.6778 9.91876 20.6372 9.84549 20.625 9.76518ZM22.1689 9.87325C21.9527 10.2438 21.3969 9.87325 21.5976 9.51045C21.7983 9.14765 22.2461 8.54555 22.6166 8.09783C22.6493 8.04563 22.7015 8.00858 22.7616 7.99483C22.8216 7.98107 22.8847 7.99175 22.9369 8.02451C22.9891 8.05726 23.0262 8.10941 23.0399 8.16949C23.0537 8.22957 23.043 8.29264 23.0103 8.34485C22.7598 8.86879 22.4815 9.37898 22.1766 9.87325L22.1689 9.87325Z" fill="#65B1D2"/>
<path d="M6.08977 22.8183C3.58103 24.6015 -0.618206 26.8709 0.076521 30.5375C0.848439 34.4435 6.05118 38.3725 8.86869 40.7809C12.3428 43.7567 16.2137 46.2352 20.3703 48.145C20.7564 48.6246 21.2242 49.0322 21.752 49.3492C23.6123 50.6769 25.7197 51.7576 27.6727 52.9386C28.6684 53.5485 29.9189 54.6909 31.0845 54.9379C33.0221 55.3702 34.1722 53.4481 35.4073 52.1822C37.6607 49.7786 39.7619 47.2366 41.6984 44.571C41.7564 44.6209 41.824 44.6583 41.897 44.6809C41.9701 44.7035 42.047 44.7108 42.123 44.7023C51.8955 43.4904 59.5761 33 61.5985 23.8604C62.9648 17.7545 59.6996 11.749 54.1572 10.2052C53.3853 2.5786 45.6661 -1.8445 38.5799 0.741435C38.4676 0.781879 38.3719 0.85833 38.3077 0.958867C38.2435 1.0594 38.2143 1.17837 38.2248 1.29722C36.6314 0.60612 34.9133 0.248836 33.1764 0.247407C26.7155 0.293723 16.1942 5.31892 18.2089 13.1076C18.3939 13.827 18.6526 14.5254 18.9808 15.1918C14.4795 17.3716 10.1676 19.9226 6.08977 22.8183ZM2.73964 32.7993C-0.255408 28.847 4.654 24.5474 10.1192 21.2205C13.7858 18.9819 17.6994 17.1988 19.6138 16.257C20.5795 17.7509 21.7168 19.1266 23.0025 20.3559C22.3644 20.6136 21.8539 21.113 21.5822 21.7454C21.3783 22.1779 21.2999 22.6589 21.3558 23.1338C21.4118 23.6087 21.5999 24.0584 21.8987 24.4317C23.126 25.9215 26.1674 25.8751 26.9239 23.9685C29.7852 26.5395 32.9691 28.727 36.3953 30.4758C33.293 32.7395 30.3973 35.2736 27.7421 38.0483C25.5421 40.2869 21.7057 43.5367 20.4475 46.5394C20.3422 46.7863 20.2695 47.0458 20.2313 47.3114C18.0314 46.0068 15.8391 44.6328 13.7318 43.1275C9.56068 40.2677 5.85344 36.7844 2.73964 32.7993ZM19.1738 10.6374C19.3591 7.25644 21.6362 6.00593 24.1064 4.62419C26.7695 3.14211 29.5716 1.72177 32.6747 1.53651C40.1005 1.15055 47.0092 8.48379 51.2008 13.9567C52.5902 15.7784 54.0414 17.8163 53.4239 20.3714C52.9299 22.4555 51.1081 24.231 49.6106 25.5895C46.8307 28.0318 43.5586 29.8482 40.0156 30.9158C32.9377 27.8711 26.7086 23.1469 21.8678 17.1525C20.4089 15.3076 19.0349 13.0999 19.1738 10.6374ZM22.4931 22.2162C22.608 21.9553 22.786 21.727 23.011 21.5518C23.236 21.3767 23.501 21.2602 23.7822 21.2127L23.8439 21.2127C24.6158 21.9229 25.3878 22.6022 26.0748 23.2506L26.4067 23.5439C26.1874 23.8374 25.908 24.0808 25.5872 24.2578C25.2664 24.4349 24.9116 24.5415 24.5464 24.5706C24.2244 24.5954 23.9008 24.5526 23.5964 24.4449C23.292 24.3372 23.0134 24.1671 22.7787 23.9453C22.563 23.7207 22.4203 23.4361 22.3694 23.1289C22.3184 22.8217 22.3615 22.5062 22.4931 22.224L22.4931 22.2162ZM44.3924 5.23401C42.7653 3.8418 40.9771 2.64969 39.0662 1.68318C45.558 -0.385567 51.332 3.0572 53.2772 9.24799C52.274 8.06491 51.0063 7.13465 49.5767 6.53252C48.1472 5.93039 46.5959 5.67331 45.0486 5.78207L44.3924 5.23401ZM21.6517 46.9177C21.9373 46.5394 22.2383 46.1458 22.5317 45.7907C23.1415 44.3395 25.0558 42.7416 26.1056 41.5683C29.5175 37.7473 33.3077 34.3354 37.0206 30.8154C37.916 31.24 38.8192 31.6337 39.7532 31.9733C39.8082 31.9966 39.8674 32.0082 39.9271 32.0075C39.9869 32.0067 40.0458 31.9936 40.1002 31.9689C40.1546 31.9443 40.2033 31.9086 40.2432 31.8642C40.2831 31.8198 40.3134 31.7676 40.3321 31.7109C43.8115 30.8144 47.0799 29.2405 49.9503 27.0793C49.6338 29.866 47.5033 32.9614 46.2605 35.2154C45.118 37.315 43.8675 39.3606 42.5321 41.3907C40.6963 44.13 38.6878 46.7496 36.5188 49.2334C35.2452 50.6846 33.1533 53.9962 30.9456 53.5948C29.9421 53.4095 27.8579 51.7345 26.9934 51.1941C25.8604 50.5931 24.7625 49.9282 23.705 49.2026C22.7437 48.7217 22.0073 47.8856 21.6517 46.8714L21.6517 46.9177ZM49.6106 9.95044C48.4913 8.79256 47.2948 7.71959 46.1524 6.7161C48.9313 7.02487 50.9383 8.08239 53.2463 9.96588C53.2814 9.99046 53.3232 10.0036 53.366 10.0036C53.4088 10.0036 53.4506 9.99046 53.4856 9.96588C53.4892 9.99923 53.4892 10.0329 53.4856 10.0662C52.2112 9.79671 50.8988 9.7575 49.6106 9.95044ZM53.9411 15.9714C53.0103 14.0443 51.7893 12.2714 50.3208 10.7146C52.2368 10.6269 54.139 11.079 55.8107 12.0192C57.4825 12.9595 58.8566 14.3503 59.7768 16.0332C60.193 16.8469 60.4844 17.7187 60.6413 18.6191C59.8373 17.6499 58.8017 16.8992 57.6306 16.4364C56.4594 15.9736 55.1904 15.8137 53.9411 15.9714ZM54.3733 16.9595C54.9842 16.9059 55.5995 16.9345 56.2028 17.0444C57.214 19.1363 55.4309 23.2197 54.4274 25.1187C53.316 27.2087 51.7869 29.0479 49.9348 30.5221C50.6654 29.1926 51.0503 27.7009 51.0541 26.1839C53.8484 23.652 55.5775 20.4871 54.3733 16.9595ZM49.2169 31.9965C49.2169 31.9193 49.2787 31.8575 49.3096 31.788C49.3662 31.8237 49.4318 31.8426 49.4987 31.8426C49.5656 31.8426 49.6312 31.8237 49.6878 31.788C52.6466 29.8346 54.911 26.9946 56.1565 23.6752C56.6351 22.3629 57.8547 18.9433 57.0828 17.2605C58.5855 17.7421 59.8842 18.7121 60.7726 20.0163C60.7726 20.0163 60.7726 20.0549 60.8343 20.078C60.8289 22.7526 60.2194 25.3913 59.0512 27.7972C55.8323 34.9915 50.5601 42.0932 42.4163 43.637L42.7482 43.1739C45.2095 39.6346 47.3707 35.8958 49.2092 31.9965L49.2169 31.9965Z" fill="#222221"/>
<path d="M10.428 21.7839C10.0625 22.035 9.78049 22.3897 9.61818 22.8024C9.45586 23.215 9.42066 23.6668 9.51711 24.0996C9.43245 24.1094 9.35357 24.1475 9.29325 24.2077C7.65678 25.7515 5.43365 27.7663 5.60348 30.2518C5.7733 32.7374 7.79573 34.6363 9.58659 35.9872C12.6202 38.303 15.7619 39.1752 18.4791 38.1563C20.1023 37.4998 21.4883 36.3667 22.4545 34.9065C22.5777 34.877 22.6849 34.8012 22.7539 34.6949C22.8228 34.5886 22.8483 34.4599 22.825 34.3353C22.8533 34.3784 22.8957 34.4104 22.945 34.4259C22.9942 34.4414 23.0473 34.4394 23.0952 34.4202C26.9548 33.1465 26.0593 31.0392 23.512 28.7312C21.2812 26.7087 19.0117 24.7326 16.6728 22.8414C15.3451 21.7607 14.1641 20.5256 12.3732 20.9348C11.6747 21.0852 11.0133 21.3739 10.428 21.7839ZM6.97749 31.6181C6.25189 28.8083 8.04274 26.7705 9.7564 24.941C10.7676 27.5038 14.2721 30.661 17.4293 32.7529C17.2131 33.0307 16.997 33.3164 16.7732 33.5942C16.5493 33.8721 16.1788 34.2349 16.1402 34.6363C16.1016 35.0377 16.364 35.2307 16.6419 35.4083C17.1128 35.717 17.63 35.9795 18.124 36.2651C18.207 36.317 18.3072 36.334 18.4026 36.3123C18.4981 36.2906 18.5811 36.232 18.6335 36.1493C19.1056 35.5269 19.5021 34.8506 19.8145 34.1346C20.4282 34.4604 21.0752 34.7192 21.7443 34.9065C20.7004 35.9801 19.4611 36.8447 18.0931 37.4538C15.7774 38.2258 13.5851 37.284 11.5936 36.1339C10.1192 35.277 7.45608 33.4244 6.97749 31.5795L6.97749 31.6181ZM10.7599 24.0765C10.6981 18.619 18.1086 25.4196 19.1661 26.3228C20.7563 27.6736 27.2558 31.6413 22.8945 33.9339C22.8448 33.96 22.8043 34.0005 22.7781 34.0501C22.7519 34.0997 22.7414 34.1561 22.7478 34.2118C22.7066 34.1429 22.6492 34.0851 22.5806 34.0434C22.512 34.0017 22.4343 33.9774 22.3541 33.9725C20.1156 33.8181 17.5528 31.4869 15.8854 30.1129C14.2181 28.7389 10.7908 26.2996 10.7599 24.0379L10.7599 24.0765ZM17.051 34.5206C17.2246 34.2076 17.446 33.9237 17.7072 33.6792C17.8307 33.5016 17.9619 33.3395 18.0854 33.1697C18.5023 33.4321 18.9037 33.656 19.2896 33.8721C18.9114 34.3893 18.5794 34.9451 18.2244 35.4623L17.5142 35.0377C17.35 34.9672 17.1966 34.8736 17.0588 34.7598C16.9584 34.5746 17.0047 34.6132 17.051 34.482L17.051 34.5206Z" fill="#222221"/>
<path d="M22.0145 6.69303C21.5703 7.07402 21.2155 7.54822 20.9753 8.08188C20.7352 8.61555 20.6156 9.19557 20.625 9.78071C20.6372 9.86102 20.6778 9.93429 20.7394 9.98724C20.801 10.0402 20.8796 10.0693 20.9608 10.0693C21.042 10.0693 21.1206 10.0402 21.1822 9.98724C21.2438 9.93429 21.2844 9.86102 21.2966 9.78071C21.2894 9.28709 21.3814 8.79705 21.567 8.3396C21.7526 7.88216 22.0282 7.46662 22.3773 7.11759C22.4336 7.06948 22.4685 7.00097 22.4743 6.92714C22.48 6.85331 22.4563 6.78021 22.4082 6.72391C22.3601 6.66761 22.2915 6.63273 22.2177 6.62693C22.1439 6.62114 22.0708 6.64492 22.0145 6.69303Z" fill="#222221"/>
<path d="M21.6057 9.50996C21.3742 9.87268 21.9607 10.2817 22.1768 9.87268C22.4847 9.37368 22.7655 8.85845 23.018 8.32922C23.0507 8.27702 23.0614 8.21396 23.0477 8.1539C23.0339 8.09384 22.9969 8.0417 22.9447 8.00895C22.8925 7.9762 22.8294 7.96553 22.7693 7.97928C22.7093 7.99303 22.6572 8.03007 22.6244 8.08226C22.254 8.5453 21.953 9.03921 21.6057 9.50996Z" fill="#222221"/>
<path d="M15.538 39.4378C15.1752 39.4378 15.0749 40.009 15.4299 40.0631C16.4939 40.2369 17.5813 40.2055 18.6334 39.9704L19.0734 39.8624C19.1108 39.852 19.1444 39.831 19.1701 39.8019C19.1959 39.7728 19.2126 39.7369 19.2183 39.6985C19.224 39.6601 19.2185 39.6209 19.2024 39.5856C19.1862 39.5503 19.1602 39.5204 19.1274 39.4996C19.0844 39.4881 19.0392 39.4881 18.9962 39.4996C17.8446 39.6024 16.6852 39.5817 15.538 39.4378Z" fill="#222221"/>
<path d="M14.8588 41.2748C14.7674 41.2533 14.6715 41.2633 14.5865 41.3031C14.5015 41.3429 14.4324 41.4102 14.3904 41.4942C14.3485 41.5781 14.336 41.6738 14.3552 41.7657C14.3743 41.8575 14.4239 41.9403 14.496 42.0004C14.5342 42.0245 14.5759 42.0427 14.6195 42.0545C16.0374 42.4221 17.5356 42.3274 18.8959 41.7843C18.9393 41.7603 18.9755 41.725 19.0008 41.6823C19.026 41.6395 19.0393 41.5908 19.0393 41.5412C19.0393 41.4915 19.026 41.4428 19.0008 41.4C18.9755 41.3573 18.9393 41.322 18.8959 41.298C18.839 41.2606 18.7698 41.2467 18.7029 41.2594C17.4414 41.5733 16.1228 41.5786 14.8588 41.2748Z" fill="#222221"/>
<path d="M43.5279 2.03069C43.1651 2.077 43.2268 2.67138 43.5896 2.66366C44.7432 2.64426 45.886 2.88709 46.932 3.37383C47.1559 3.47417 47.2485 3.13453 47.0941 3.01102C46.0817 2.22578 44.7995 1.87332 43.5279 2.03069Z" fill="#222221"/>
<path d="M53.0225 12.0887C52.5979 12.0887 52.5593 12.7835 53.0225 12.768C54.0541 12.7377 55.0683 13.0379 55.9172 13.6248C55.9641 13.6511 56.0187 13.6601 56.0716 13.6505C56.1245 13.6409 56.1724 13.6131 56.207 13.5721C56.2417 13.531 56.261 13.4791 56.2617 13.4254C56.2623 13.3717 56.2442 13.3194 56.2105 13.2775C55.7946 12.8634 55.295 12.5431 54.7451 12.3381C54.1953 12.1331 53.6079 12.0481 53.0225 12.0887Z" fill="#222221"/>
<path d="M32.1041 49.5724C32.0798 49.5942 32.06 49.6205 32.0458 49.65C32.0317 49.6794 32.0235 49.7114 32.0217 49.744C32.0199 49.7766 32.0246 49.8092 32.0354 49.84C32.0462 49.8708 32.063 49.8992 32.0848 49.9235C32.1066 49.9479 32.1329 49.9676 32.1624 49.9818C32.1918 49.9959 32.2238 50.0041 32.2564 50.0059C32.289 50.0077 32.3216 50.003 32.3524 49.9922C32.3832 49.9814 32.4116 49.9646 32.4359 49.9428C33.3068 49.3024 34.0634 48.5197 34.6739 47.6276C34.9286 47.2418 34.3421 46.8945 34.072 47.2495C33.4617 48.0614 32.8046 48.837 32.1041 49.5724Z" fill="#222221"/>
<path d="M31.9877 51.5491C31.7638 51.7112 31.9877 52.0895 32.2579 51.9428C33.4316 51.2192 34.3971 50.2031 35.0599 48.9941C35.2684 48.6081 34.6971 48.2222 34.481 48.6235C33.8695 49.7664 33.0191 50.7641 31.9877 51.5491Z" fill="#222221"/>
</svg>
